<?xml version="1.0" encoding="utf-8"?>
<!-- Generator: Adobe Illustrator 13.0.2, SVG Export Plug-In . SVG Version: 6.00 Build 14948)  -->
<!DOCTYPE svg PUBLIC "-//W3C//DTD SVG 1.1//EN" "http://www.w3.org/Graphics/SVG/1.1/DTD/svg11.dtd">
<svg version="1.1" id="Vrstva_1" xmlns="http://www.w3.org/2000/svg" xmlns:xlink="http://www.w3.org/1999/xlink" x="0px" y="0px"
	 width="200px" height="78.246px" viewBox="0 0 200 78.246" enable-background="new 0 0 200 78.246" xml:space="preserve">
<g>
	<linearGradient id="biela_1_" gradientUnits="userSpaceOnUse" x1="99.9189" y1="78.2461" x2="99.9189" y2="3.4106">
		<stop  offset="0.05" style="stop-color:#007881"/>
		<stop  offset="0.1461" style="stop-color:#00666E"/>
		<stop  offset="0.2484" style="stop-color:#00555B"/>
		<stop  offset="0.3327" style="stop-color:#00494F"/>
		<stop  offset="0.3879" style="stop-color:#00454B"/>
		<stop  offset="0.45" style="stop-color:#00484E"/>
		<stop  offset="0.5311" style="stop-color:#005158"/>
		<stop  offset="0.6226" style="stop-color:#005F67"/>
		<stop  offset="0.65" style="stop-color:#00646C"/>
		<stop  offset="0.95" style="stop-color:#008993"/>
	</linearGradient>
	<path id="biela_2_" fill-rule="evenodd" clip-rule="evenodd" fill="url(#biela_1_)" d="M199.837,40.827
		c0,7.289-0.861,18.291-4.759,25.043c-4.413,7.257-12.874,12.376-22.804,12.376H27.564c-9.929,0-18.391-5.119-22.806-12.376
		C0.864,59.118,0,48.119,0,40.83c0-7.29,0.864-18.292,4.759-25.044C9.173,8.53,17.636,3.41,27.564,3.41h144.71
		c9.93,0,18.391,5.12,22.804,12.376C198.976,22.539,199.837,33.541,199.837,40.827L199.837,40.827L199.837,40.827z"/>
	<linearGradient id="SVGID_1_" gradientUnits="userSpaceOnUse" x1="100.811" y1="13.8398" x2="100.811" y2="45.4536">
		<stop  offset="0" style="stop-color:#007881"/>
		<stop  offset="0.1876" style="stop-color:#00747D"/>
		<stop  offset="0.4926" style="stop-color:#006971"/>
		<stop  offset="0.6" style="stop-color:#00646C"/>
		<stop  offset="0.8492" style="stop-color:#005D64"/>
		<stop  offset="1" style="stop-color:#00575E"/>
	</linearGradient>
	<path fill-rule="evenodd" clip-rule="evenodd" fill="url(#SVGID_1_)" d="M197.234,30.51c-0.68-5.83-3.986-9.548-6.937-11.818
		c-3.925-3.02-9.493-4.852-18.168-4.852H39.61c-11.085,0-19.228,2.097-24.602,5.085c-5.826,3.24-10.138,7.648-10.658,12.311
		c-0.286,3.918,0.173,7.391,1.714,9.881c1.438,2.323,4.624,4.337,8.354,4.337H187.26c3.73,0,6.914-2.014,8.354-4.337
		C197.157,38.626,197.589,34.686,197.234,30.51z"/>
	<g id="tien_dole_1_">
		<defs>
			<path id="SVGID_2_" d="M29.406,9.99c-5.785,0.008-12.541,2.836-16.059,6.612C7.793,22.567,6.579,31.927,6.579,40.83
				c0,8.902,1.214,18.258,6.769,24.222c3.518,3.779,10.274,6.604,16.059,6.615h74.625V9.99H29.406L29.406,9.99z"/>
		</defs>
		<linearGradient id="SVGID_3_" gradientUnits="userSpaceOnUse" x1="55.3047" y1="9.9897" x2="55.3047" y2="71.6675">
			<stop  offset="0.2974" style="stop-color:#FFFFFF"/>
			<stop  offset="0.306" style="stop-color:#F7F7F7"/>
		</linearGradient>
		<use xlink:href="#SVGID_2_"  overflow="visible" fill="url(#SVGID_3_)"/>
		<clipPath id="SVGID_4_">
			<use xlink:href="#SVGID_2_"  overflow="visible"/>
		</clipPath>
		<linearGradient id="SVGID_5_" gradientUnits="userSpaceOnUse" x1="100.854" y1="29.8228" x2="100.854" y2="75.0825">
			<stop  offset="0" style="stop-color:#FFFFFF"/>
			<stop  offset="0.2458" style="stop-color:#E4E4E4"/>
			<stop  offset="0.4" style="stop-color:#D9D9D9"/>
			<stop  offset="0.7259" style="stop-color:#E7E7E7"/>
			<stop  offset="1" style="stop-color:#EDEDED"/>
		</linearGradient>
		<path clip-path="url(#SVGID_4_)" fill-rule="evenodd" clip-rule="evenodd" fill="url(#SVGID_5_)" d="M197.858,29.823
			c0.04,0.449,0.078,0.902,0.108,1.363c0.355,4.175-0.17,7.44-1.711,9.931c-1.438,2.323-4.622,4.337-8.353,4.337H14.419
			c-3.73,0-6.916-2.014-8.354-4.337c-1.542-2.49-2.066-5.755-1.71-9.931c0.031-0.461,0.068-0.914,0.108-1.363H1.708v45.259h170.781
			c9.911,0,18.355-5.109,22.762-12.352c3.889-6.739,4.749-17.72,4.749-24.996c0-2.34-0.092-5.067-0.342-7.912H197.858z"/>
	</g>
	<g id="svetlo_hore_1_">
		<defs>
			<path id="SVGID_6_" d="M29.406,9.99c-5.785,0.008-12.541,2.836-16.059,6.612C7.793,22.567,6.579,31.927,6.579,40.83
				c0,8.902,1.214,18.258,6.769,24.222c3.518,3.779,10.274,6.604,16.059,6.615h74.625V9.99H29.406L29.406,9.99z"/>
		</defs>
		<clipPath id="SVGID_7_">
			<use xlink:href="#SVGID_6_"  overflow="visible"/>
		</clipPath>
		<linearGradient id="SVGID_8_" gradientUnits="userSpaceOnUse" x1="100.4946" y1="30.0981" x2="100.4946" y2="13.8398">
			<stop  offset="0" style="stop-color:#F7F7F7"/>
			<stop  offset="1" style="stop-color:#F0F0F0"/>
		</linearGradient>
		<path clip-path="url(#SVGID_7_)" fill-rule="evenodd" clip-rule="evenodd" fill="url(#SVGID_8_)" d="M197.164,30.098
			c-0.679-5.83-3.916-9.136-6.866-11.406c-3.925-3.02-9.493-4.852-18.168-4.852H39.61c-11.085,0-19.228,2.097-24.602,5.085
			c-5.826,3.24-9.23,6.436-11.183,11.173H197.164z"/>
	</g>
	<linearGradient id="SVGID_9_" gradientUnits="userSpaceOnUse" x1="147.0562" y1="23.0068" x2="147.0562" y2="58.5103">
		<stop  offset="0" style="stop-color:#FFFFFF"/>
		<stop  offset="1" style="stop-color:#E6E6E6"/>
	</linearGradient>
	<path fill="url(#SVGID_9_)" d="M129.995,23.007c-14.006,0-16.978,4.315-16.978,17.785c0,13.063,3.241,17.718,16.978,17.718
		c5.131,0,9.363-0.411,12.304-2.047c2.82-1.63,4.517-4.423,4.6-9.418h-10.661c-0.162,3.74-2.795,4.12-6.242,4.12
		c-5.128,0-6.119-2.141-6.119-8.416v-0.381h23.025v-1.576C146.901,26.54,143.076,23.007,129.995,23.007z M136.044,36.713h-12.183
		c0.141-4.781,1.049-6.361,5.929-6.361c4.021,0,6.254,0.417,6.254,5.984V36.713z M153.827,23.147v7.973h8.096v27.363h11.08V31.12
		h8.094v-7.973H153.827z"/>
	<linearGradient id="SVGID_10_" gradientUnits="userSpaceOnUse" x1="59.2705" y1="23.147" x2="59.2705" y2="58.8735">
		<stop  offset="0" style="stop-color:#00838D"/>
		<stop  offset="1" style="stop-color:#00363C"/>
	</linearGradient>
	<path fill="url(#SVGID_10_)" d="M79.986,36.583c-5.985-0.134-6.339-1.387-6.339-3.374c0-2.352,0.263-3.104,6.344-3.104
		c2.23,0,4.455,0.198,4.956,2.972H95.39v-1.422c0-8.393-8.799-8.509-15.399-8.509c-9.909,0-17.085,0.221-17.085,11.347
		c0,6.995,2.415,10.266,17.085,10.266c1.329,0,3.43-0.071,4.666,0.463c1.149,0.497,1.681,1.502,1.681,3.318
		c0,3.048-1.118,3.374-6.347,3.374c-2.909,0-5.871-0.064-6.001-3.986H62.906c0.084,7.729,3.749,10.256,10.521,10.796
		c2.05,0.162,4.275,0.148,6.563,0.148c9.34,0,17.087-1.56,17.087-11.685C97.078,37.542,92.046,36.856,79.986,36.583z M38.55,23.147
		c-14.075,0-17.086,4.376-17.086,17.898c0,13.114,3.281,17.828,17.086,17.828c5.133,0,9.388-0.407,12.361-2.058
		c2.884-1.668,4.599-4.53,4.657-9.63H44.688c-0.115,3.734-2.652,4.119-6.139,4.119c-5.029,0-6.007-2.046-6.007-8.302v-0.268h23.026
		v-1.69C55.569,26.733,51.697,23.147,38.55,23.147z M44.49,36.853H32.535c0.135-4.684,1.09-6.138,5.813-6.138
		c3.991,0,6.142,0.395,6.142,5.871V36.853z"/>
	<g>
		<path fill="#00646C" d="M193.388,7.508c-1.737,0-3.93-0.929-3.93-3.729c0-2.413,1.72-3.779,3.914-3.779
			c1.872,0,3.88,1.029,3.88,3.779C197.252,6.174,195.548,7.508,193.388,7.508z M193.388,0.709c-1.669,0-3.138,0.877-3.138,3.002
			c0,2.649,2.177,3.088,3.223,3.088c1.687,0,3.02-1.063,3.02-3.02C196.493,1.637,194.923,0.709,193.388,0.709z M195.33,5.719
			c-0.524-0.016-0.895-0.117-1.216-0.455c-0.371-0.354-0.675-0.86-0.86-1.181h-0.573v1.535h-0.793V1.536h1.518
			c0.844,0,1.417,0.388,1.417,1.265c0,0.506-0.253,0.911-0.759,1.147c0.136,0.186,0.372,0.573,0.607,0.81
			c0.236,0.236,0.473,0.287,0.76,0.405L195.33,5.719z M193.288,2.108h-0.607v1.417h0.522c0.591,0,0.86-0.202,0.86-0.708
			C194.063,2.329,193.878,2.108,193.288,2.108z"/>
	</g>
</g>
</svg>
