<?xml version="1.0" encoding="UTF-8" standalone="no"?>
<!-- Created with Inkscape (http://www.inkscape.org/) -->

<svg
   xmlns:dc="http://purl.org/dc/elements/1.1/"
   xmlns:cc="http://creativecommons.org/ns#"
   xmlns:rdf="http://www.w3.org/1999/02/22-rdf-syntax-ns#"
   xmlns:svg="http://www.w3.org/2000/svg"
   xmlns="http://www.w3.org/2000/svg"
   xmlns:sodipodi="http://sodipodi.sourceforge.net/DTD/sodipodi-0.dtd"
   xmlns:inkscape="http://www.inkscape.org/namespaces/inkscape"
   version="1.1"
   id="svg2"
   xml:space="preserve"
   width="1800"
   height="793.70135"
   viewBox="0 0 1800 793.70135"
   sodipodi:docname="exponea.svg"
   inkscape:version="0.92.2 (5c3e80d, 2017-08-06)"><metadata
     id="metadata8"><rdf:RDF><cc:Work
         rdf:about=""><dc:format>image/svg+xml</dc:format><dc:type
           rdf:resource="http://purl.org/dc/dcmitype/StillImage" /><dc:title></dc:title></cc:Work></rdf:RDF></metadata><defs
     id="defs6"><clipPath
       clipPathUnits="userSpaceOnUse"
       id="clipPath20"><path
         d="M 0,595.276 H 841.89 V 0 H 0 Z"
         id="path18"
         inkscape:connector-curvature="0" /></clipPath><clipPath
       clipPathUnits="userSpaceOnUse"
       id="clipPath38"><path
         d="M 0,595.276 H 841.89 V 0 H 0 Z"
         id="path36"
         inkscape:connector-curvature="0" /></clipPath></defs><sodipodi:namedview
     pagecolor="#ffffff"
     bordercolor="#666666"
     borderopacity="1"
     objecttolerance="10"
     gridtolerance="10"
     guidetolerance="10"
     inkscape:pageopacity="0"
     inkscape:pageshadow="2"
     inkscape:window-width="1920"
     inkscape:window-height="1016"
     id="namedview4"
     showgrid="false"
     inkscape:zoom="0.28774542"
     inkscape:cx="290.18706"
     inkscape:cy="535.86244"
     inkscape:window-x="0"
     inkscape:window-y="27"
     inkscape:window-maximized="1"
     inkscape:current-layer="g10" /><g
     id="g10"
     inkscape:groupmode="layer"
     inkscape:label="logo yellow"
     transform="matrix(1.3333333,0,0,-1.3333333,0,793.70133)"><path
       d="M -0.0758742,4.9406573e-4 H 1350.0759 V 595.2755 H -0.0758742 Z"
       style="fill:#f9d406;fill-opacity:1;fill-rule:nonzero;stroke:none;stroke-width:1.26637876"
       id="path12"
       inkscape:connector-curvature="0" /><g
       id="g1031"
       transform="matrix(1.4264652,0,0,1.4264652,74.536598,-144.51957)"><g
         transform="translate(165.2124,243.716)"
         id="g24"><path
           inkscape:connector-curvature="0"
           id="path26"
           style="fill:#151412;fill-opacity:1;fill-rule:nonzero;stroke:none"
           d="M 0,0 V 30.959 H 21.211 V 26.178 H 5.43 V 18.195 H 20.886 V 13.414 H 5.43 V 4.781 H 21.211 V 0 Z" /></g><g
         transform="translate(218.7773,243.716)"
         id="g28"><path
           inkscape:connector-curvature="0"
           id="path30"
           style="fill:#151412;fill-opacity:1;fill-rule:nonzero;stroke:none"
           d="M 0,0 -8.68,12.114 -17.359,0 h -6.498 L -12.3,15.874 -23.161,30.959 h 6.498 L -8.68,19.634 -0.743,30.959 H 5.802 L -5.106,15.921 6.498,0 Z" /></g><g
         transform="translate(-6.6455822)"
         id="g32"><g
           clip-path="url(#clipPath38)"
           id="g34"><g
             transform="translate(252.895,264.9748)"
             id="g40"><path
               inkscape:connector-curvature="0"
               id="path42"
               style="fill:#151412;fill-opacity:1;fill-rule:nonzero;stroke:none"
               d="m 0,0 c 0,2.97 -2.182,4.919 -5.245,4.919 h -7.473 v -9.793 h 7.473 C -2.182,-4.874 0,-2.925 0,0 M -18.148,-21.259 V 9.7 H -4.502 C 1.996,9.7 5.57,5.291 5.57,0 5.57,-5.245 1.949,-9.655 -4.502,-9.655 h -8.216 v -11.604 z" /></g><g
             transform="translate(269.0498,243.716)"
             id="g44"><path
               inkscape:connector-curvature="0"
               id="path46"
               style="fill:#151412;fill-opacity:1;fill-rule:nonzero;stroke:none"
               d="M 0,0 V 30.959 H 21.211 V 26.178 H 5.431 V 18.195 H 20.887 V 13.414 H 5.431 V 4.781 h 15.78 V 0 Z" /></g><g
             transform="translate(320.062,265.0207)"
             id="g48"><path
               inkscape:connector-curvature="0"
               id="path50"
               style="fill:#151412;fill-opacity:1;fill-rule:nonzero;stroke:none"
               d="m 0,0 c 0,2.971 -2.228,4.873 -5.292,4.873 h -7.472 v -9.839 h 7.472 C -2.228,-4.966 0,-3.017 0,0 m -0.511,-21.305 -6.822,11.558 h -5.431 v -11.558 h -5.43 V 9.654 h 13.599 c 6.127,0 10.165,-3.945 10.165,-9.7 0,-5.477 -3.621,-8.494 -7.38,-9.098 l 7.612,-12.161 z" /></g><path
             inkscape:connector-curvature="0"
             id="path52"
             style="fill:#151412;fill-opacity:1;fill-rule:nonzero;stroke:none"
             d="m 337.099,274.675 h 5.431 v -30.959 h -5.431 z" /><g
             transform="translate(355.1558,243.716)"
             id="g54"><path
               inkscape:connector-curvature="0"
               id="path56"
               style="fill:#151412;fill-opacity:1;fill-rule:nonzero;stroke:none"
               d="M 0,0 V 30.959 H 21.211 V 26.178 H 5.43 V 18.195 H 20.886 V 13.414 H 5.43 V 4.781 H 21.211 V 0 Z" /></g><g
             transform="translate(409.5557,243.716)"
             id="g58"><path
               inkscape:connector-curvature="0"
               id="path60"
               style="fill:#151412;fill-opacity:1;fill-rule:nonzero;stroke:none"
               d="M 0,0 -16.152,22.141 V 0 h -5.431 v 30.959 h 5.57 L -0.186,9.516 V 30.959 H 5.245 V 0 Z" /></g><g
             transform="translate(426.082,259.1721)"
             id="g62"><path
               inkscape:connector-curvature="0"
               id="path64"
               style="fill:#151412;fill-opacity:1;fill-rule:nonzero;stroke:none"
               d="m 0,0 c 0,9.562 7.102,16.013 16.245,16.013 6.22,0 10.118,-3.202 12.393,-6.915 L 24.043,6.685 C 22.558,9.283 19.541,11.187 16.245,11.187 10.118,11.187 5.57,6.545 5.57,0 c 0,-6.451 4.548,-11.186 10.675,-11.186 3.296,0 6.313,1.95 7.798,4.502 l 4.642,-2.32 c -2.368,-3.713 -6.22,-7.009 -12.44,-7.009 C 7.102,-16.013 0,-9.515 0,0" /></g><g
             transform="translate(465.1201,243.716)"
             id="g66"><path
               inkscape:connector-curvature="0"
               id="path68"
               style="fill:#151412;fill-opacity:1;fill-rule:nonzero;stroke:none"
               d="M 0,0 V 30.959 H 21.211 V 26.178 H 5.43 V 18.195 H 20.886 V 13.414 H 5.43 V 4.781 H 21.211 V 0 Z" /></g><g
             transform="translate(514.6016,259.1721)"
             id="g70"><path
               inkscape:connector-curvature="0"
               id="path72"
               style="fill:#151412;fill-opacity:1;fill-rule:nonzero;stroke:none"
               d="m 0,0 c 0,9.562 7.102,16.013 16.245,16.013 6.22,0 10.118,-3.202 12.393,-6.915 L 24.043,6.685 C 22.558,9.283 19.541,11.187 16.245,11.187 10.118,11.187 5.57,6.545 5.57,0 c 0,-6.451 4.548,-11.186 10.675,-11.186 3.296,0 6.313,1.95 7.798,4.502 l 4.642,-2.32 c -2.368,-3.713 -6.22,-7.009 -12.44,-7.009 C 7.102,-16.013 0,-9.515 0,0" /></g><g
             transform="translate(553.2676,243.716)"
             id="g74"><path
               inkscape:connector-curvature="0"
               id="path76"
               style="fill:#151412;fill-opacity:1;fill-rule:nonzero;stroke:none"
               d="M 0,0 V 30.959 H 5.431 V 4.781 H 19.076 V 0 Z" /></g><g
             transform="translate(606.5078,259.1721)"
             id="g78"><path
               inkscape:connector-curvature="0"
               id="path80"
               style="fill:#151412;fill-opacity:1;fill-rule:nonzero;stroke:none"
               d="m 0,0 c 0,6.405 -4.038,11.187 -10.258,11.187 -6.265,0 -10.258,-4.782 -10.258,-11.187 0,-6.358 3.993,-11.186 10.258,-11.186 C -4.038,-11.186 0,-6.358 0,0 m -26.085,0 c 0,9.237 6.544,16.013 15.827,16.013 9.237,0 15.827,-6.776 15.827,-16.013 0,-9.236 -6.59,-16.013 -15.827,-16.013 -9.283,0 -15.827,6.777 -15.827,16.013" /></g><g
             transform="translate(623.3135,255.9699)"
             id="g82"><path
               inkscape:connector-curvature="0"
               id="path84"
               style="fill:#151412;fill-opacity:1;fill-rule:nonzero;stroke:none"
               d="M 0,0 V 18.705 H 5.523 V 0.14 c 0,-4.921 2.739,-8.123 7.891,-8.123 5.152,0 7.891,3.202 7.891,8.123 v 18.565 h 5.523 V 0 c 0,-7.659 -4.41,-12.811 -13.414,-12.811 C 4.456,-12.811 0,-7.659 0,0" /></g><g
             transform="translate(684.9082,259.219)"
             id="g86"><path
               inkscape:connector-curvature="0"
               id="path88"
               style="fill:#151412;fill-opacity:1;fill-rule:nonzero;stroke:none"
               d="m 0,0 c 0,5.941 -3.713,10.675 -10.582,10.675 h -6.127 v -21.397 h 6.08 C -3.898,-10.722 0,-5.895 0,0 m -22.14,-15.503 v 30.959 h 11.511 C -0.928,15.456 5.57,9.051 5.57,0 c 0,-9.144 -6.498,-15.503 -16.152,-15.503 z" /></g><g
             transform="translate(426.9395,320.7937)"
             id="g90"><path
               inkscape:connector-curvature="0"
               id="path92"
               style="fill:#151312;fill-opacity:1;fill-rule:nonzero;stroke:none"
               d="m 0,0 c -11.521,0 -20.972,9.452 -20.972,20.972 0,11.521 9.451,20.972 20.972,20.972 11.521,0 20.973,-9.451 20.973,-20.972 C 20.973,9.452 11.521,0 0,0 m 0,55.982 c -19.294,0 -34.954,-15.659 -34.954,-34.954 0,-19.294 15.66,-34.953 34.954,-34.953 19.295,0 34.954,15.659 34.954,34.953 0,19.295 -15.659,34.954 -34.954,34.954" /></g><g
             transform="translate(556.2969,306.8122)"
             id="g94"><path
               inkscape:connector-curvature="0"
               id="path96"
               style="fill:#151312;fill-opacity:1;fill-rule:nonzero;stroke:none"
               d="M 0,0 V 0 H 55.981 V 13.981 H 14.037 V 28.019 H 45.468 V 42 H 14.037 V 55.982 H 55.981 V 69.963 H 0 Z" /></g><g
             transform="translate(315.0317,376.7756)"
             id="g98"><path
               inkscape:connector-curvature="0"
               id="path100"
               style="fill:#151312;fill-opacity:1;fill-rule:nonzero;stroke:none"
               d="M 0,0 H -17.449 L -34.954,-23.321 -52.458,0 h -17.449 l 26.173,-34.954 -26.173,-35.009 h 17.449 l 17.504,23.321 17.505,-23.321 H 0 l -26.285,35.009 z" /></g><g
             transform="translate(689.1768,306.8122)"
             id="g102"><path
               inkscape:connector-curvature="0"
               id="path104"
               style="fill:#151312;fill-opacity:1;fill-rule:nonzero;stroke:none"
               d="M 0,0 -27.46,69.963 H -42.448 L -69.907,0 h 14.988 L -34.954,50.781 -14.988,0 Z" /></g><g
             transform="translate(528.334,325.4914)"
             id="g106"><path
               inkscape:connector-curvature="0"
               id="path108"
               style="fill:#151312;fill-opacity:1;fill-rule:nonzero;stroke:none"
               d="m 0,0 -38.478,51.284 h -17.449 v -69.963 h 13.982 V 32.605 L -3.468,-18.679 H 6.99 13.981 V 51.284 H 0 Z" /></g><g
             transform="translate(192.666,348.8127)"
             id="g110"><path
               inkscape:connector-curvature="0"
               id="path112"
               style="fill:#151312;fill-opacity:1;fill-rule:nonzero;stroke:none"
               d="M 0,0 H -13.981 V -28.019 H -27.963 V -42 h 69.907 v 13.981 H 0 v 14.038 H 41.944 V 0 H 13.981 V 13.981 H 41.944 V 27.963 H 0 Z" /></g><g
             transform="translate(357.0322,376.7756)"
             id="g114"><path
               inkscape:connector-curvature="0"
               id="path116"
               style="fill:#151312;fill-opacity:1;fill-rule:nonzero;stroke:none"
               d="m 0,0 v 0 h -31.486 v -69.907 h 13.981 v 55.926 H 0 c 7.774,0 13.981,-6.208 13.981,-13.982 0,-7.774 -6.207,-13.981 -13.981,-13.981 h -3.523 l -6.991,-13.982 H 0 c 15.436,0 27.963,12.583 27.963,27.963 C 27.963,-12.583 15.38,0 0,0" /></g></g></g></g></g></svg>