<?xml version="1.0" encoding="UTF-8" standalone="no"?>
<!-- Created with Inkscape (http://www.inkscape.org/) -->

<svg
   xmlns:dc="http://purl.org/dc/elements/1.1/"
   xmlns:cc="http://creativecommons.org/ns#"
   xmlns:rdf="http://www.w3.org/1999/02/22-rdf-syntax-ns#"
   xmlns:svg="http://www.w3.org/2000/svg"
   xmlns="http://www.w3.org/2000/svg"
   xmlns:sodipodi="http://sodipodi.sourceforge.net/DTD/sodipodi-0.dtd"
   xmlns:inkscape="http://www.inkscape.org/namespaces/inkscape"
   version="1.1"
   id="svg2"
   xml:space="preserve"
   width="831.49597"
   height="415.74799"
   viewBox="0 0 831.49597 415.74799"
   sodipodi:docname="we_are_developers.svg"
   inkscape:version="0.92.2 (5c3e80d, 2017-08-06)"><metadata
     id="metadata8"><rdf:RDF><cc:Work
         rdf:about=""><dc:format>image/svg+xml</dc:format><dc:type
           rdf:resource="http://purl.org/dc/dcmitype/StillImage" /><dc:title></dc:title></cc:Work></rdf:RDF></metadata><defs
     id="defs6"><clipPath
       clipPathUnits="userSpaceOnUse"
       id="clipPath46"><path
         d="M 0,311.811 H 623.622 V 0 H 0 Z"
         id="path44"
         inkscape:connector-curvature="0" /></clipPath></defs><sodipodi:namedview
     pagecolor="#ffffff"
     bordercolor="#666666"
     borderopacity="1"
     objecttolerance="10"
     gridtolerance="10"
     guidetolerance="10"
     inkscape:pageopacity="0"
     inkscape:pageshadow="2"
     inkscape:window-width="846"
     inkscape:window-height="480"
     id="namedview4"
     showgrid="false"
     inkscape:zoom="0.41491482"
     inkscape:cx="415.74799"
     inkscape:cy="207.87399"
     inkscape:window-x="0"
     inkscape:window-y="27"
     inkscape:window-maximized="0"
     inkscape:current-layer="g10" /><g
     id="g10"
     inkscape:groupmode="layer"
     inkscape:label="WAD-Logo_red"
     transform="matrix(1.3333333,0,0,-1.3333333,0,415.748)"><g
       id="g12"
       transform="translate(123.2864,119.1323)"><path
         d="m 0,0 h -40.301 l -70.525,184.022 h 43.959 z"
         style="fill:#ee2551;fill-opacity:1;fill-rule:nonzero;stroke:none"
         id="path14"
         inkscape:connector-curvature="0" /></g><g
       id="g16"
       transform="translate(82.9602,119.1323)"><path
         d="m 0,0 66.867,184.022 h 43.959 L 40.301,0 Z"
         style="fill:#ee2551;fill-opacity:1;fill-rule:nonzero;stroke:none"
         id="path18"
         inkscape:connector-curvature="0" /></g><g
       id="g20"
       transform="translate(260.6546,119.1323)"><path
         d="m 0,0 h -40.301 l -70.526,184.022 h 43.96 z"
         style="fill:#ee2551;fill-opacity:1;fill-rule:nonzero;stroke:none"
         id="path22"
         inkscape:connector-curvature="0" /></g><g
       id="g24"
       transform="translate(220.3284,119.1323)"><path
         d="m 0,0 66.867,184.022 h 43.959 L 40.301,0 Z"
         style="fill:#ee2551;fill-opacity:1;fill-rule:nonzero;stroke:none"
         id="path26"
         inkscape:connector-curvature="0" /></g><g
       id="g28"
       transform="translate(610.9211,231.3062)"><path
         d="m 0,0 v -40.3 l -184.02,-70.525 v 43.958 z"
         style="fill:#ee2551;fill-opacity:1;fill-rule:nonzero;stroke:none"
         id="path30"
         inkscape:connector-curvature="0" /></g><g
       id="g32"
       transform="translate(610.9211,190.98)"><path
         d="m 0,0 -184.02,66.868 v 43.959 L 0,40.302 Z"
         style="fill:#ee2551;fill-opacity:1;fill-rule:nonzero;stroke:none"
         id="path34"
         inkscape:connector-curvature="0" /></g><g
       id="g36"
       transform="translate(23.6302,80.2095)"><path
         d="M 0,0 7.317,-31.737 8.911,-40.569 10.51,-31.92 16.77,0 h 12.22 l 6.585,-31.732 1.687,-8.837 1.711,8.492 L 46.361,0 H 58.152 L 42.561,-55.423 H 31.472 l -6.693,32.412 -1.956,10.716 -1.955,-10.716 -6.692,-32.412 H 3.42 L -12.295,0 Z"
         style="fill:#ee2750;fill-opacity:1;fill-rule:nonzero;stroke:none"
         id="path38"
         inkscape:connector-curvature="0" /></g><g
       id="g40"><g
         id="g42"
         clip-path="url(#clipPath46)"><g
           id="g48"
           transform="translate(93.3792,55.6831)"><path
             d="m 0,0 c -1.515,-1.561 -2.466,-3.676 -2.854,-6.344 h 18.46 C 15.411,-3.498 14.46,-1.34 12.752,0.132 11.044,1.605 8.926,2.343 6.396,2.343 3.646,2.343 1.514,1.562 0,0 m 16.031,9.257 c 2.859,-1.28 5.22,-3.301 7.082,-6.062 1.678,-2.435 2.767,-5.258 3.266,-8.472 0.287,-1.884 0.405,-4.596 0.352,-8.135 H -3.118 c 0.166,-4.111 1.595,-6.994 4.286,-8.648 1.637,-1.028 3.606,-1.541 5.908,-1.541 2.441,0 4.425,0.626 5.95,1.878 0.832,0.677 1.568,1.618 2.206,2.821 h 10.94 c -0.288,-2.43 -1.612,-4.902 -3.973,-7.406 -3.671,-3.986 -8.81,-5.979 -15.419,-5.979 -5.454,0 -10.266,1.681 -14.435,5.043 -4.17,3.361 -6.254,8.831 -6.254,16.407 0,7.101 1.882,12.543 5.646,16.332 3.763,3.787 8.649,5.685 14.655,5.685 3.567,0 6.78,-0.642 9.639,-1.923"
             style="fill:#ee2750;fill-opacity:1;fill-rule:nonzero;stroke:none"
             id="path50"
             inkscape:connector-curvature="0" /></g><g
           id="g52"
           transform="translate(137.6302,45.731)"><path
             d="M 0,0 H 14.193 L 7.191,21.807 Z M 0.763,34.479 H 13.866 L 33.475,-20.944 H 20.916 l -3.657,11.393 h -20.41 l -3.757,-11.393 h -12.113 z"
             style="fill:#ee2750;fill-opacity:1;fill-rule:nonzero;stroke:none"
             id="path54"
             inkscape:connector-curvature="0" /></g><g
           id="g56"
           transform="translate(196.2073,66.729)"><path
             d="m 0,0 c 0.137,-0.012 0.443,-0.032 0.92,-0.056 v -10.978 c -0.677,0.074 -1.277,0.125 -1.805,0.15 -0.526,0.024 -0.953,0.037 -1.278,0.037 -4.312,0 -7.206,-1.404 -8.686,-4.211 -0.827,-1.579 -1.24,-4.011 -1.24,-7.296 v -19.587 h -10.792 v 40.983 h 10.228 v -7.145 c 1.655,2.733 3.095,4.6 4.324,5.602 2.005,1.68 4.611,2.52 7.821,2.52 C -0.309,0.019 -0.14,0.014 0,0"
             style="fill:#ee2750;fill-opacity:1;fill-rule:nonzero;stroke:none"
             id="path58"
             inkscape:connector-curvature="0" /></g><g
           id="g60"
           transform="translate(210.2317,55.6831)"><path
             d="M 0,0 C -1.515,-1.561 -2.465,-3.676 -2.854,-6.344 H 15.607 C 15.412,-3.498 14.461,-1.34 12.753,0.132 11.044,1.605 8.927,2.343 6.397,2.343 3.647,2.343 1.515,1.562 0,0 m 16.032,9.257 c 2.858,-1.28 5.219,-3.301 7.082,-6.062 1.678,-2.435 2.767,-5.258 3.266,-8.472 0.287,-1.884 0.405,-4.596 0.352,-8.135 H -3.117 c 0.165,-4.111 1.596,-6.994 4.286,-8.648 1.636,-1.028 3.606,-1.541 5.908,-1.541 2.441,0 4.425,0.626 5.95,1.878 0.832,0.677 1.568,1.618 2.205,2.821 h 10.941 c -0.288,-2.43 -1.612,-4.902 -3.973,-7.406 -3.671,-3.986 -8.81,-5.979 -15.419,-5.979 -5.454,0 -10.266,1.681 -14.435,5.043 -4.17,3.361 -6.254,8.831 -6.254,16.407 0,7.101 1.882,12.543 5.646,16.332 3.763,3.787 8.649,5.685 14.655,5.685 3.567,0 6.78,-0.642 9.639,-1.923"
             style="fill:#ee2750;fill-opacity:1;fill-rule:nonzero;stroke:none"
             id="path62"
             inkscape:connector-curvature="0" /></g><g
           id="g64"
           transform="translate(250.6399,70.5845)"><path
             d="m 0,0 v -36.172 h 10.695 c 5.474,0 9.289,2.694 11.448,8.085 1.18,2.956 1.771,6.479 1.771,10.565 0,5.64 -0.886,9.969 -2.655,12.99 C 19.489,-1.511 15.968,0 10.695,0 Z M 21.232,8.421 C 25.12,7.144 28.27,4.8 30.678,1.391 c 1.931,-2.758 3.248,-5.741 3.95,-8.949 0.703,-3.209 1.055,-6.266 1.055,-9.174 0,-7.371 -1.481,-13.612 -4.44,-18.725 -4.014,-6.894 -10.211,-10.341 -18.59,-10.341 H -11.243 V 9.625 h 23.896 c 3.437,-0.05 6.296,-0.453 8.579,-1.204"
             style="fill:#ee2750;fill-opacity:1;fill-rule:nonzero;stroke:none"
             id="path66"
             inkscape:connector-curvature="0" /></g><g
           id="g68"
           transform="translate(300.968,55.6831)"><path
             d="M 0,0 C -1.515,-1.561 -2.466,-3.676 -2.854,-6.344 H 15.607 C 15.412,-3.498 14.461,-1.34 12.752,0.132 11.045,1.605 8.926,2.343 6.397,2.343 3.646,2.343 1.515,1.562 0,0 m 16.031,9.257 c 2.86,-1.28 5.22,-3.301 7.083,-6.062 1.679,-2.435 2.767,-5.258 3.265,-8.472 0.288,-1.884 0.406,-4.596 0.353,-8.135 H -3.117 c 0.165,-4.111 1.595,-6.994 4.286,-8.648 1.636,-1.028 3.606,-1.541 5.907,-1.541 2.442,0 4.426,0.626 5.951,1.878 0.832,0.677 1.568,1.618 2.205,2.821 h 10.94 c -0.286,-2.43 -1.611,-4.902 -3.973,-7.406 -3.67,-3.986 -8.809,-5.979 -15.418,-5.979 -5.454,0 -10.266,1.681 -14.436,5.043 -4.169,3.361 -6.253,8.831 -6.253,16.407 0,7.101 1.882,12.543 5.645,16.332 3.764,3.787 8.65,5.685 14.656,5.685 3.567,0 6.779,-0.642 9.638,-1.923"
             style="fill:#ee2750;fill-opacity:1;fill-rule:nonzero;stroke:none"
             id="path70"
             inkscape:connector-curvature="0" /></g><g
           id="g72"
           transform="translate(354.5179,65.771)"><path
             d="m 0,0 h 11.506 l -14.8,-40.984 H -14.593 L -29.291,0 h 12.032 l 8.535,-30.23 z"
             style="fill:#ee2750;fill-opacity:1;fill-rule:nonzero;stroke:none"
             id="path74"
             inkscape:connector-curvature="0" /></g><g
           id="g76"
           transform="translate(378.9212,55.6831)"><path
             d="M 0,0 C -1.516,-1.561 -2.466,-3.676 -2.855,-6.344 H 15.607 C 15.411,-3.498 14.459,-1.34 12.751,0.132 11.044,1.605 8.925,2.343 6.396,2.343 3.646,2.343 1.514,1.562 0,0 m 16.03,9.257 c 2.859,-1.28 5.22,-3.301 7.083,-6.062 1.679,-2.435 2.767,-5.258 3.266,-8.472 0.287,-1.884 0.405,-4.596 0.352,-8.135 h -29.85 c 0.166,-4.111 1.596,-6.994 4.287,-8.648 1.636,-1.028 3.606,-1.541 5.908,-1.541 2.441,0 4.425,0.626 5.949,1.878 0.832,0.677 1.569,1.618 2.206,2.821 h 10.94 c -0.286,-2.43 -1.611,-4.902 -3.973,-7.406 -3.671,-3.986 -8.809,-5.979 -15.417,-5.979 -5.455,0 -10.268,1.681 -14.436,5.043 -4.17,3.361 -6.255,8.831 -6.255,16.407 0,7.101 1.883,12.543 5.647,16.332 3.763,3.787 8.649,5.685 14.655,5.685 3.567,0 6.779,-0.642 9.638,-1.923"
             style="fill:#ee2750;fill-opacity:1;fill-rule:nonzero;stroke:none"
             id="path78"
             inkscape:connector-curvature="0" /></g><path
           d="M 418.162,24.787 H 407.446 V 80.21 h 10.716 z"
           style="fill:#ee2750;fill-opacity:1;fill-rule:nonzero;stroke:none"
           id="path80"
           inkscape:connector-curvature="0" /><g
           id="g82"
           transform="translate(450.3704,35.7231)"><path
             d="m 0,0 c 1.679,2.228 2.52,5.394 2.52,9.5 0,4.104 -0.841,7.264 -2.52,9.479 -1.679,2.215 -4.085,3.324 -7.219,3.324 -3.134,0 -5.546,-1.109 -7.237,-3.324 -1.693,-2.215 -2.538,-5.375 -2.538,-9.479 0,-4.106 0.845,-7.272 2.538,-9.5 1.691,-2.229 4.103,-3.341 7.237,-3.341 3.134,0 5.54,1.112 7.219,3.341 m 8.574,-5.923 c -3.461,-4.269 -8.712,-6.404 -15.756,-6.404 -7.043,0 -12.294,2.135 -15.754,6.404 -3.46,4.271 -5.189,9.411 -5.189,15.423 0,5.91 1.729,11.032 5.189,15.364 3.46,4.333 8.711,6.5 15.754,6.5 7.044,0 12.295,-2.167 15.756,-6.5 3.459,-4.332 5.189,-9.454 5.189,-15.364 0,-6.012 -1.73,-11.152 -5.189,-15.423"
             style="fill:#ee2750;fill-opacity:1;fill-rule:nonzero;stroke:none"
             id="path84"
             inkscape:connector-curvature="0" /></g><g
           id="g86"
           transform="translate(494.1936,53.6646)"><path
             d="m 0,0 c -1.457,2.431 -3.818,3.646 -7.084,3.646 -3.926,0 -6.623,-1.841 -8.092,-5.526 -0.759,-1.956 -1.139,-4.438 -1.139,-7.446 0,-4.763 1.277,-8.11 3.835,-10.038 1.518,-1.129 3.316,-1.694 5.394,-1.694 3.014,0 5.312,1.154 6.896,3.46 1.583,2.306 2.374,5.377 2.374,9.212 C 2.184,-5.227 1.455,-2.432 0,0 m 8.224,7.708 c 3.343,-3.536 5.014,-8.724 5.014,-15.567 0,-7.219 -1.634,-12.722 -4.9,-16.506 -3.268,-3.785 -7.475,-5.678 -12.621,-5.678 -3.28,0 -6.006,0.815 -8.175,2.444 -1.185,0.903 -2.346,2.218 -3.481,3.948 v -21.357 h -10.603 v 57.114 h 10.265 V 6.053 c 1.16,1.78 2.396,3.182 3.708,4.21 2.396,1.832 5.248,2.746 8.552,2.746 4.819,0 8.899,-1.767 12.241,-5.301"
             style="fill:#ee2750;fill-opacity:1;fill-rule:nonzero;stroke:none"
             id="path88"
             inkscape:connector-curvature="0" /></g><g
           id="g90"
           transform="translate(521.8157,55.6831)"><path
             d="M 0,0 C -1.515,-1.561 -2.466,-3.676 -2.854,-6.344 H 15.607 C 15.411,-3.498 14.461,-1.34 12.752,0.132 11.044,1.605 8.925,2.343 6.396,2.343 3.646,2.343 1.514,1.562 0,0 m 16.03,9.257 c 2.86,-1.28 5.221,-3.301 7.082,-6.062 1.679,-2.435 2.769,-5.258 3.267,-8.472 0.287,-1.884 0.406,-4.596 0.353,-8.135 h -29.85 c 0.166,-4.111 1.596,-6.994 4.285,-8.648 1.638,-1.028 3.607,-1.541 5.909,-1.541 2.441,0 4.425,0.626 5.95,1.878 0.833,0.677 1.567,1.618 2.206,2.821 h 10.94 c -0.288,-2.43 -1.612,-4.902 -3.972,-7.406 -3.673,-3.986 -8.812,-5.979 -15.42,-5.979 -5.454,0 -10.266,1.681 -14.436,5.043 -4.168,3.361 -6.254,8.831 -6.254,16.407 0,7.101 1.883,12.543 5.647,16.332 3.763,3.787 8.649,5.685 14.655,5.685 3.568,0 6.78,-0.642 9.638,-1.923"
             style="fill:#ee2750;fill-opacity:1;fill-rule:nonzero;stroke:none"
             id="path92"
             inkscape:connector-curvature="0" /></g><g
           id="g94"
           transform="translate(572.8821,66.729)"><path
             d="m 0,0 c 0.138,-0.012 0.445,-0.032 0.921,-0.056 v -10.978 c -0.676,0.074 -1.277,0.125 -1.804,0.15 -0.526,0.024 -0.953,0.037 -1.278,0.037 -4.313,0 -7.207,-1.404 -8.686,-4.211 -0.828,-1.579 -1.241,-4.011 -1.241,-7.296 v -19.587 h -10.791 v 40.983 h 10.226 v -7.145 c 1.657,2.733 3.097,4.6 4.325,5.602 2.006,1.68 4.612,2.52 7.821,2.52 C -0.306,0.019 -0.138,0.014 0,0"
             style="fill:#ee2750;fill-opacity:1;fill-rule:nonzero;stroke:none"
             id="path96"
             inkscape:connector-curvature="0" /></g><g
           id="g98"
           transform="translate(584.5413,37.8716)"><path
             d="m 0,0 c 0.228,-1.904 0.719,-3.26 1.474,-4.062 1.334,-1.427 3.803,-2.142 7.404,-2.142 2.116,0 3.798,0.313 5.044,0.941 1.247,0.624 1.87,1.567 1.87,2.821 0,1.201 -0.502,2.116 -1.506,2.744 -1.005,0.626 -4.743,1.704 -11.211,3.233 -4.657,1.152 -7.938,2.594 -9.843,4.324 -1.906,1.704 -2.857,4.161 -2.857,7.369 0,3.786 1.488,7.038 4.464,9.756 2.978,2.721 7.167,4.081 12.567,4.081 5.125,0 9.3,-1.022 12.529,-3.065 3.226,-2.043 5.081,-5.57 5.558,-10.585 H 14.777 c -0.151,1.379 -0.541,2.469 -1.169,3.272 -1.181,1.454 -3.193,2.181 -6.033,2.181 -2.337,0 -4.002,-0.364 -4.996,-1.09 -0.992,-0.727 -1.488,-1.58 -1.488,-2.557 0,-1.229 0.526,-2.118 1.584,-2.67 1.055,-0.577 4.784,-1.567 11.188,-2.97 4.268,-1.003 7.469,-2.52 9.6,-4.549 2.106,-2.057 3.158,-4.626 3.158,-7.709 0,-4.061 -1.514,-7.376 -4.541,-9.944 -3.026,-2.57 -7.704,-3.855 -14.033,-3.855 -6.455,0 -11.221,1.361 -14.298,4.081 -3.076,2.719 -4.615,6.184 -4.615,10.395 z"
             style="fill:#ee2750;fill-opacity:1;fill-rule:nonzero;stroke:none"
             id="path100"
             inkscape:connector-curvature="0" /></g><g
           id="g102"
           transform="translate(398.0247,119.1323)"><path
             d="m 0,0 h -40.301 l -70.526,184.022 h 43.96 z"
             style="fill:#ee2551;fill-opacity:1;fill-rule:nonzero;stroke:none"
             id="path104"
             inkscape:connector-curvature="0" /></g></g></g></g></svg>