<svg id="Layer_1" data-name="Layer 1" xmlns="http://www.w3.org/2000/svg" viewBox="0 0 391.11 108"><defs><style>.cls-1{fill:#b9002d;}.cls-2{fill:#fff;}</style></defs><title>ORM_logo_box_rgb</title><rect class="cls-1" width="391.11" height="108"/><polygon class="cls-2" points="196.49 35.34 196.49 26.12 158.03 26.12 158.03 81.43 196.49 81.43 196.49 72.21 167.25 72.21 167.25 58.39 195.08 58.39 195.08 49.17 167.25 49.17 167.25 35.34 196.49 35.34"/><polygon class="cls-2" points="225.02 81.43 225.02 26.12 234.24 26.12 234.24 72.21 260.83 72.21 260.83 81.43 225.02 81.43"/><polygon class="cls-2" points="268.35 81.43 268.35 26.12 277.57 26.12 277.57 72.21 304.16 72.21 304.16 81.43 268.35 81.43"/><rect class="cls-2" x="206.16" y="26.12" width="9.22" height="55.31"/><path class="cls-2" d="M42.93,40.18a19.6,19.6,0,1,0,13.85-5.73,19.53,19.53,0,0,0-13.85,5.73M28,54A28.81,28.81,0,1,1,56.78,82.84,28.81,28.81,0,0,1,28,54"/><path class="cls-2" d="M114.08,49.17V35.34h18.57a6.91,6.91,0,0,1,0,13.83H114.08Zm23.2,8.53a16.13,16.13,0,0,0-4.63-31.58H104.86V81.43h9.22v-23h12.84l13.91,23h10.75Z"/><path class="cls-2" d="M98.33,32a6.79,6.79,0,1,1-6.79-6.79A6.79,6.79,0,0,1,98.33,32"/><polygon class="cls-2" points="345.26 26.12 334.06 26.12 319.87 46.66 305.68 26.12 294.48 26.12 315.25 56.2 315.25 81.43 324.47 81.43 324.47 56.22 345.26 26.12"/><path class="cls-2" d="M356.17,37.44a5.73,5.73,0,1,1,5.73-5.73,5.73,5.73,0,0,1-5.73,5.73m0-12.55A6.82,6.82,0,1,0,363,31.71a6.82,6.82,0,0,0-6.82-6.82"/><path class="cls-2" d="M354.51,29.34h2.69a0.87,0.87,0,0,1,0,1.74h-2.69V29.34Zm4.71,0.87a2,2,0,0,0-2-2h-3.84v7h1.15V32.24h1.95l1.39,2.89h1.29l-1.43-3a2,2,0,0,0,1.51-2"/></svg>