<svg id="Layer_1" data-name="Layer 1" xmlns="http://www.w3.org/2000/svg" viewBox="0 0 415.68 143.6">
  <defs>
    <style>
      .cls-1 {
        fill: #1c2135;
      }

      .cls-2 {
        fill: #83929b;
      }
    </style>
  </defs>
  <title>slushpool-braiins-1line-positive</title>
  <g>
    <path class="cls-1" d="M69.67,48.31l-5.38-1.7a7.28,7.28,0,0,1-2.62-1.22,2.55,2.55,0,0,1-.82-2A5.43,5.43,0,0,1,61,42a3.49,3.49,0,0,1,1.87-2.54,9.56,9.56,0,0,1,4.33-.79H72.8l3.1,0c1.11,0,2.37,0,3.77,0l3-7.78L78,30.85l-3.25,0H69.38a40.49,40.49,0,0,0-6.57.49,17,17,0,0,0-5.33,1.75,11.62,11.62,0,0,0-3.83,3.34,12.67,12.67,0,0,0-2.1,5.23,19.21,19.21,0,0,0-.35,3.45,9.83,9.83,0,0,0,.47,3.13,7.44,7.44,0,0,0,1.52,2.63A10.74,10.74,0,0,0,56,53a22.32,22.32,0,0,0,4.33,1.81l5,1.53A7.8,7.8,0,0,1,68,57.75a2.78,2.78,0,0,1,.91,2.19,5.71,5.71,0,0,1-.12,1.17,3.82,3.82,0,0,1-2.25,3,14.62,14.62,0,0,1-5.29.73H55.88c-1.17,0-2.38,0-3.63,0l-3.56-.08-3,7.83q4.09,0,7.81.06c2.47,0,4.61.06,6.4.06a44.45,44.45,0,0,0,7.28-.53,16.08,16.08,0,0,0,5.38-1.81,10.33,10.33,0,0,0,3.62-3.42,15.4,15.4,0,0,0,2-5.41,16.28,16.28,0,0,0,.35-3.27,9.22,9.22,0,0,0-2-5.85Q74.65,49.88,69.67,48.31Z"/>
    <polygon class="cls-1" points="96.86 30.94 87.22 30.94 79.09 72.57 106.04 72.57 109.14 64.44 90.31 64.44 96.86 30.94"/>
    <path class="cls-1" d="M150,30.94H140.3l-5.14,26.25a22.33,22.33,0,0,1-1.11,4,7.34,7.34,0,0,1-1.64,2.57,5.74,5.74,0,0,1-2.4,1.38,12.36,12.36,0,0,1-3.39.4c-2.38,0-4.09-.41-5.14-1.25a4.88,4.88,0,0,1-1.58-4.07c0-.42,0-.89.08-1.4s.13-1,.21-1.58l5.14-26.31h-9.64l-4.92,25.2a19.44,19.44,0,0,0-.37,2.52c-.06.77-.09,1.54-.09,2.28a14.1,14.1,0,0,0,1.08,5.76,9.83,9.83,0,0,0,3.1,3.94,13.47,13.47,0,0,0,4.94,2.25,30.31,30.31,0,0,0,13.74-.12A14.35,14.35,0,0,0,138.58,70a15.28,15.28,0,0,0,3.83-4.88,27.68,27.68,0,0,0,2.34-7.31Z"/>
    <path class="cls-1" d="M168.6,48.31l-5.38-1.7a7.09,7.09,0,0,1-2.63-1.23,2.52,2.52,0,0,1-.82-2A5.46,5.46,0,0,1,160,42a3.46,3.46,0,0,1,1.87-2.54,9.48,9.48,0,0,1,4.32-.79h5.59l3.1,0c1.11,0,2.36,0,3.77,0l3-7.78-4.77-.09-3.24,0h-5.32a40.65,40.65,0,0,0-6.58.5,16.66,16.66,0,0,0-5.32,1.76,11.29,11.29,0,0,0-3.83,3.33,12.62,12.62,0,0,0-2.11,5.23,19.21,19.21,0,0,0-.35,3.45,10.12,10.12,0,0,0,.47,3.13,7.53,7.53,0,0,0,1.52,2.63A10.63,10.63,0,0,0,154.92,53a22.2,22.2,0,0,0,4.32,1.81l5,1.53a7.71,7.71,0,0,1,2.72,1.37,2.73,2.73,0,0,1,.91,2.19,5.71,5.71,0,0,1-.12,1.17,3.8,3.8,0,0,1-2.25,3,14.58,14.58,0,0,1-5.29.73H154.8l-3.62,0c-1.25,0-2.44-.06-3.57-.09l-3,7.83q4.1,0,7.8.06t6.4.06a44.58,44.58,0,0,0,7.29-.53,16.1,16.1,0,0,0,5.37-1.81,10.45,10.45,0,0,0,3.63-3.42,15.8,15.8,0,0,0,2-5.41,17,17,0,0,0,.35-3.27,9.28,9.28,0,0,0-2-5.85C174.22,50.73,171.91,49.36,168.6,48.31Z"/>
    <polygon class="cls-1" points="208.36 47.14 192.63 47.14 195.79 30.94 186.14 30.94 178.01 72.57 187.66 72.57 190.93 55.62 206.72 55.62 203.39 72.57 213.03 72.57 221.16 30.94 211.51 30.94 208.36 47.14"/>
    <path class="cls-1" d="M262.23,33.6a14.51,14.51,0,0,0-4.85-2l.91-4.7h-4.06L253.4,31c-.83-.06-1.69-.1-2.6-.1h-.69l.78-4h-4.06l-.82,4H233.33l-1.53,7.8h3.45l-2.35,12h-3.35l-1.45,7.56h3.32l-2.77,14.24h9.41l2.74-14h6.67a35.8,35.8,0,0,0,6.66-.59,15.45,15.45,0,0,0,5.47-2.07,13,13,0,0,0,4-4,16.65,16.65,0,0,0,2.25-6.34,18.52,18.52,0,0,0,.35-3.45Q266.18,36.26,262.23,33.6Zm-5.76,11.84a8.71,8.71,0,0,1-.81,2.51,4.15,4.15,0,0,1-1.5,1.61,6.57,6.57,0,0,1-2.42.88,20.15,20.15,0,0,1-3.57.26h-5.9l2.33-11.92h5.85a9.14,9.14,0,0,1,4.71,1,3.78,3.78,0,0,1,1.55,3.48A10.48,10.48,0,0,1,256.47,45.44Z"/>
    <path class="cls-1" d="M289,29.83a28.83,28.83,0,0,0-8.13,1.05,15.42,15.42,0,0,0-6.22,3.54A20.25,20.25,0,0,0,270.12,41a42.56,42.56,0,0,0-2.89,10.09c-.27,1.4-.47,2.74-.59,4s-.17,2.49-.17,3.62c0,5.26,1.37,9.07,4.09,11.4s6.76,3.51,12.11,3.51a28.71,28.71,0,0,0,8.12-1.05A15.52,15.52,0,0,0,297.05,69a19.88,19.88,0,0,0,4.53-6.55,41.55,41.55,0,0,0,2.89-10.08c.24-1.4.42-2.74.56-4a32.61,32.61,0,0,0,.21-3.59q0-7.95-4.13-11.46T289,29.83Zm6.17,18.24c-.14,1.21-.34,2.56-.62,4A47.75,47.75,0,0,1,292.87,59,12,12,0,0,1,290.68,63a6.49,6.49,0,0,1-3,2,14.8,14.8,0,0,1-4.21.52,14.33,14.33,0,0,1-3.1-.29,4.48,4.48,0,0,1-3.54-3.21,11.44,11.44,0,0,1-.44-3.45,30.59,30.59,0,0,1,.2-3.22c.14-1.21.35-2.55.62-4a43,43,0,0,1,1.7-6.84,12.45,12.45,0,0,1,2.22-4.1,6.45,6.45,0,0,1,3-2,14.78,14.78,0,0,1,4.21-.53,14.62,14.62,0,0,1,3.07.29,4.48,4.48,0,0,1,3.5,3.19,10.8,10.8,0,0,1,.44,3.42A30.85,30.85,0,0,1,295.15,48.07Z"/>
    <path class="cls-1" d="M345.2,48.39a35.15,35.15,0,0,0,.2-3.59q0-7.95-4.12-11.46t-12.13-3.51A28.83,28.83,0,0,0,321,30.88a15.34,15.34,0,0,0-6.23,3.54,20.39,20.39,0,0,0-4.5,6.55,42.14,42.14,0,0,0-2.89,10.08c-.27,1.41-.47,2.75-.59,4s-.17,2.49-.17,3.62q0,7.9,4.09,11.41t12.1,3.5A28.83,28.83,0,0,0,331,72.57,15.59,15.59,0,0,0,337.22,69a19.92,19.92,0,0,0,4.53-6.55,42.47,42.47,0,0,0,2.89-10.08C344.87,51,345.06,49.66,345.2,48.39Zm-9.89-.32c-.13,1.21-.34,2.56-.61,4A46.3,46.3,0,0,1,333,59,12,12,0,0,1,330.84,63a6.4,6.4,0,0,1-3,2,14.78,14.78,0,0,1-4.21.53,14.42,14.42,0,0,1-3.1-.3,4.73,4.73,0,0,1-2.22-1.08A4.86,4.86,0,0,1,317,62.05a11.44,11.44,0,0,1-.44-3.45,30.59,30.59,0,0,1,.2-3.22c.14-1.21.34-2.55.62-4A44.2,44.2,0,0,1,319,44.51a12.63,12.63,0,0,1,2.22-4.1,6.5,6.5,0,0,1,3-2,14.48,14.48,0,0,1,4.21-.53,14.62,14.62,0,0,1,3.07.29,4.9,4.9,0,0,1,2.2,1.08,4.84,4.84,0,0,1,1.31,2.11,11.05,11.05,0,0,1,.44,3.42A28.58,28.58,0,0,1,335.31,48.07Z"/>
    <polygon class="cls-1" points="355.23 64.44 361.77 30.94 352.12 30.94 344 72.57 370.95 72.57 374.05 64.44 355.23 64.44"/>
  </g>
  <g>
    <path class="cls-2" d="M50.22,99.1a2.72,2.72,0,0,1,2.28,1,3.08,3.08,0,0,1,.52,2.53l-1.16,6.58a3.74,3.74,0,0,1-3.9,3.29H44.3a2.69,2.69,0,0,1-2.28-1,3.14,3.14,0,0,1-.52-2.55l1.16-6.58A3.92,3.92,0,0,1,44,99.93a3.66,3.66,0,0,1,2.55-.88Zm.54,3.41a1.61,1.61,0,0,0-.15-1.11,1,1,0,0,0-.88-.39H46.59a1.51,1.51,0,0,0-1.11.47,2.11,2.11,0,0,0-.59,1.18l-1.15,6.5c-.17,1,.17,1.47,1,1.47h3.14a1.66,1.66,0,0,0,1.16-.46A2,2,0,0,0,49.7,109Z"/>
    <path class="cls-2" d="M64.29,99.1a2.78,2.78,0,0,1,2.28,1,3.08,3.08,0,0,1,.52,2.53l-1.15,6.58a4,4,0,0,1-1.31,2.43,3.75,3.75,0,0,1-2.55.86h-1.2a3.78,3.78,0,0,1-2.43-1.08l-.94-.79-1.17,6.46H54.13l3.14-17.93H59.5l-.34,1.8,1.13-.86a4.26,4.26,0,0,1,2.8-1Zm.54,3.48c.17-1-.17-1.5-1-1.5h-1a5.78,5.78,0,0,0-2.68.74l-1.15.61-1.25,6.78.86.61a3.93,3.93,0,0,0,2.38.74h1a1.69,1.69,0,0,0,1.18-.47,2,2,0,0,0,.64-1.2Z"/>
    <path class="cls-2" d="M78.26,99.1a2.75,2.75,0,0,1,2.28,1,3.08,3.08,0,0,1,.52,2.53l-.67,3.78h-8l-.49,2.77c-.17,1,.17,1.47,1,1.47h3a1.5,1.5,0,0,0,1.11-.46,2.11,2.11,0,0,0,.59-1.18l.12-.74H80l-.17.94a4,4,0,0,1-1.33,2.43,3.89,3.89,0,0,1-2.58.86H72.41a2.7,2.7,0,0,1-2.28-1,3.14,3.14,0,0,1-.52-2.55l1.16-6.58a3.92,3.92,0,0,1,1.3-2.43,3.66,3.66,0,0,1,2.55-.88Zm.59,3.38a1.44,1.44,0,0,0-.18-1.1,1,1,0,0,0-.9-.39h-3a1.47,1.47,0,0,0-1.1.46,2.05,2.05,0,0,0-.59,1.18l-.35,2H78.5Z"/>
    <path class="cls-2" d="M90.71,101.11a5.81,5.81,0,0,0-2.65.74l-1.18.61-1.77,9.94H82.88l2.33-13.26h2.24l-.35,1.8,1.11-.86a4.54,4.54,0,0,1,2.82-1h1.38l-.35,2.06Z"/>
    <path class="cls-2" d="M100.77,112.4l.34-1.79-1.13.86a4.57,4.57,0,0,1-2.8,1H96a2.68,2.68,0,0,1-2.28-1,3.14,3.14,0,0,1-.52-2.55l1.16-6.58a3.92,3.92,0,0,1,1.3-2.43,3.77,3.77,0,0,1,2.55-.88h1.2a3.78,3.78,0,0,1,2.43,1.1l.94.79.34-1.8h2.26L103,112.4Zm1-10.63a4,4,0,0,0-2.41-.74h-1a1.67,1.67,0,0,0-1.18.47,2,2,0,0,0-.61,1.2L95.39,109c-.17,1,.17,1.5,1.06,1.5h1a5.85,5.85,0,0,0,2.67-.73l1.18-.62,1.23-6.77Z"/>
    <path class="cls-2" d="M110.51,109a1.42,1.42,0,0,0,.15,1,1,1,0,0,0,.88.4h2.73l-.35,1.91H111.1a2.73,2.73,0,0,1-2.29-1,3.18,3.18,0,0,1-.51-2.55l1.37-7.86h-2.18l.32-1.87H110l.76-4.41H113l-.76,4.41h4L116,101h-4Z"/>
    <path class="cls-2" d="M125.83,99.1a2.74,2.74,0,0,1,2.28,1,3.08,3.08,0,0,1,.52,2.53l-.67,3.78h-8l-.49,2.77c-.17,1,.17,1.47,1,1.47h3a1.5,1.5,0,0,0,1.1-.46,2.05,2.05,0,0,0,.59-1.18l.12-.74h2.26l-.17.94a4,4,0,0,1-1.33,2.43,3.88,3.88,0,0,1-2.57.86H120a2.71,2.71,0,0,1-2.29-1,3.14,3.14,0,0,1-.51-2.55l1.15-6.58a3.92,3.92,0,0,1,1.3-2.43,3.66,3.66,0,0,1,2.55-.88Zm.59,3.38a1.48,1.48,0,0,0-.17-1.1,1,1,0,0,0-.91-.39h-3a1.48,1.48,0,0,0-1.1.46,2.05,2.05,0,0,0-.59,1.18l-.35,2h5.77Z"/>
    <path class="cls-2" d="M138.45,112.4l.35-1.79-1.13.86a4.59,4.59,0,0,1-2.8,1h-1.21a2.7,2.7,0,0,1-2.28-1,3.14,3.14,0,0,1-.52-2.55l1.16-6.58a3.92,3.92,0,0,1,1.3-2.43,3.8,3.8,0,0,1,2.55-.88h1.21a3.82,3.82,0,0,1,2.43,1.1l.93.79,1.25-7h2.24l-3.22,18.41Zm1-10.63A4,4,0,0,0,137,101h-1a1.69,1.69,0,0,0-1.18.47,2,2,0,0,0-.61,1.2L133.07,109c-.17,1,.18,1.5,1.06,1.5h1a5.89,5.89,0,0,0,2.68-.73l1.18-.62,1.22-6.77Z"/>
    <path class="cls-2" d="M161.18,99.1a2.88,2.88,0,0,1,2.31,1,3,3,0,0,1,.54,2.53l-1.16,6.58a3.92,3.92,0,0,1-1.3,2.43,3.77,3.77,0,0,1-2.55.86h-1.2a3.78,3.78,0,0,1-2.43-1.08l-.91-.79-.35,1.79H151.9L155.12,94h2.25l-1.25,7,1.11-.89a4.11,4.11,0,0,1,2.82-1Zm.61,3.48c.17-1-.19-1.5-1.08-1.5h-1a5.94,5.94,0,0,0-2.65.77l-1.15.58-1.26,6.78.84.61a3.91,3.91,0,0,0,2.4.74h1a1.57,1.57,0,0,0,1.15-.47,2.2,2.2,0,0,0,.59-1.2Z"/>
    <path class="cls-2" d="M168.74,117.07H166.6L169,112.4,166.7,99.14h2.08l1.62,10.46,5.33-10.46h2.21Z"/>
    <path class="cls-2" d="M195,99.1a2.88,2.88,0,0,1,2.31,1,3,3,0,0,1,.54,2.53l-1.16,6.58a3.92,3.92,0,0,1-1.3,2.43,3.79,3.79,0,0,1-2.55.86h-1.2a3.8,3.8,0,0,1-2.44-1.08l-.9-.79L188,112.4h-2.23L188.93,94h2.26l-1.25,7,1.11-.89a4.11,4.11,0,0,1,2.82-1Zm.61,3.48c.17-1-.19-1.5-1.08-1.5h-1a5.94,5.94,0,0,0-2.65.77l-1.15.58-1.26,6.78.84.61a3.91,3.91,0,0,0,2.4.74h1a1.57,1.57,0,0,0,1.15-.47,2.2,2.2,0,0,0,.59-1.2Z"/>
    <path class="cls-2" d="M207.72,101.11a5.81,5.81,0,0,0-2.65.74l-1.18.61-1.77,9.94h-2.23l2.33-13.26h2.23l-.34,1.8,1.11-.86a4.52,4.52,0,0,1,2.82-1h1.37l-.34,2.06Z"/>
    <path class="cls-2" d="M217.78,112.4l.34-1.79-1.13.86a4.57,4.57,0,0,1-2.8,1H213a2.68,2.68,0,0,1-2.28-1,3.14,3.14,0,0,1-.52-2.55l1.15-6.58a4,4,0,0,1,1.3-2.43,3.81,3.81,0,0,1,2.56-.88h1.2a3.8,3.8,0,0,1,2.43,1.1l.93.79.35-1.8h2.26L220,112.4Zm.95-10.63a4,4,0,0,0-2.4-.74h-1a1.65,1.65,0,0,0-1.18.47,2,2,0,0,0-.62,1.2L212.4,109c-.17,1,.17,1.5,1,1.5h1a5.88,5.88,0,0,0,2.67-.73l1.18-.62,1.23-6.77Z"/>
    <path class="cls-2" d="M226.25,112.4H224l2.33-13.26h2.24Zm.45-15.91.44-2.5h2.45l-.41,2.5Z"/>
    <path class="cls-2" d="M232.66,112.4h-2.23l2.33-13.26H235Zm.44-15.91.44-2.5H236l-.42,2.5Z"/>
    <path class="cls-2" d="M246.44,102.56c.18-1-.17-1.5-1-1.5h-.78a5.58,5.58,0,0,0-2.65.74l-1.16.61-1.79,10H236.8l2.33-13.23h2.23L241,101l1.1-.86a4.56,4.56,0,0,1,2.83-1h.93a2.7,2.7,0,0,1,2.28,1,3.1,3.1,0,0,1,.52,2.53L247,112.4h-2.23Z"/>
    <path class="cls-2" d="M259.84,102.43c.17-.93-.15-1.4-1-1.4h-2.7a1.32,1.32,0,0,0-1,.45,2,2,0,0,0-.51,1.1l-.15.84c-.08.36-.05.61.07.73a1.59,1.59,0,0,0,.81.3l3.61.61c1.87.32,2.68,1.3,2.36,3l-.27,1.37a4,4,0,0,1-1.25,2.36,3.67,3.67,0,0,1-2.46.81h-3.71a2.67,2.67,0,0,1-2.21-.91,2.94,2.94,0,0,1-.46-2.43l.14-.86h2.21l-.14.93a1.32,1.32,0,0,0,.14,1,1,1,0,0,0,.84.37h3.17a1.44,1.44,0,0,0,1-.44,2,2,0,0,0,.56-1.13l.2-1.13c.07-.37.05-.64-.1-.79a1.73,1.73,0,0,0-.84-.32l-3.55-.63c-1.9-.35-2.71-1.31-2.39-2.93l.2-1a4,4,0,0,1,1.25-2.35,3.63,3.63,0,0,1,2.43-.86h3.24a2.74,2.74,0,0,1,2.24.93,2.94,2.94,0,0,1,.51,2.43l-.09.64h-2.21Z"/>
    <path class="cls-2" d="M280.31,102.43c.17-.93-.15-1.4-1-1.4h-2.7a1.33,1.33,0,0,0-1,.45,2,2,0,0,0-.51,1.1l-.15.84c-.08.36,0,.61.07.73a1.59,1.59,0,0,0,.81.3l3.61.61c1.87.32,2.68,1.3,2.36,3l-.27,1.37a4,4,0,0,1-1.25,2.36,3.67,3.67,0,0,1-2.46.81h-3.71a2.67,2.67,0,0,1-2.21-.91,2.94,2.94,0,0,1-.46-2.43l.14-.86h2.21l-.14.93a1.32,1.32,0,0,0,.14,1,1,1,0,0,0,.84.37h3.17a1.44,1.44,0,0,0,1-.44,2,2,0,0,0,.56-1.13l.2-1.13c.07-.37,0-.64-.1-.79a1.73,1.73,0,0,0-.83-.32l-3.56-.63c-1.9-.35-2.71-1.31-2.39-2.93l.2-1a4,4,0,0,1,1.25-2.35,3.63,3.63,0,0,1,2.43-.86h3.24a2.74,2.74,0,0,1,2.24.93,2.94,2.94,0,0,1,.51,2.43l-.09.64h-2.21Z"/>
    <path class="cls-2" d="M287.11,117.07H285l2.38-4.67-2.28-13.26h2.09l1.62,10.46,5.32-10.46h2.21Z"/>
    <path class="cls-2" d="M305.24,102.43c.17-.93-.15-1.4-1-1.4h-2.7a1.32,1.32,0,0,0-1,.45,2.13,2.13,0,0,0-.52,1.1l-.15.84c-.07.36,0,.61.08.73a1.59,1.59,0,0,0,.81.3l3.61.61c1.86.32,2.67,1.3,2.36,3l-.28,1.37a3.88,3.88,0,0,1-1.25,2.36,3.63,3.63,0,0,1-2.45.81h-3.71a2.67,2.67,0,0,1-2.21-.91,2.94,2.94,0,0,1-.47-2.43l.15-.86h2.21l-.15.93a1.36,1.36,0,0,0,.15,1,.93.93,0,0,0,.84.37h3.16a1.41,1.41,0,0,0,1-.44,2,2,0,0,0,.57-1.13l.2-1.13a.91.91,0,0,0-.1-.79,1.73,1.73,0,0,0-.84-.32l-3.56-.63c-1.89-.35-2.7-1.31-2.38-2.93l.2-1a3.91,3.91,0,0,1,1.25-2.35,3.59,3.59,0,0,1,2.43-.86h3.24A2.72,2.72,0,0,1,307,100a2.91,2.91,0,0,1,.52,2.43l-.1.64h-2.21Z"/>
    <path class="cls-2" d="M313,109a1.42,1.42,0,0,0,.14,1,1,1,0,0,0,.89.4h2.72l-.34,1.91h-2.82a2.73,2.73,0,0,1-2.29-1,3.18,3.18,0,0,1-.51-2.55l1.37-7.86H310l.32-1.87h2.23l.76-4.41h2.19l-.76,4.41h4.05l-.32,1.87h-4Z"/>
    <path class="cls-2" d="M328.3,99.1a2.75,2.75,0,0,1,2.28,1,3.08,3.08,0,0,1,.52,2.53l-.67,3.78h-8l-.49,2.77c-.17,1,.17,1.47,1,1.47h3a1.5,1.5,0,0,0,1.11-.46,2.11,2.11,0,0,0,.59-1.18l.12-.74H330l-.17.94a4,4,0,0,1-1.33,2.43,3.89,3.89,0,0,1-2.58.86h-3.51a2.7,2.7,0,0,1-2.28-1,3.14,3.14,0,0,1-.52-2.55l1.16-6.58a3.92,3.92,0,0,1,1.3-2.43,3.66,3.66,0,0,1,2.55-.88Zm.59,3.38a1.44,1.44,0,0,0-.18-1.1,1,1,0,0,0-.9-.39h-3a1.48,1.48,0,0,0-1.1.46,2.05,2.05,0,0,0-.59,1.18l-.35,2h5.77Z"/>
    <path class="cls-2" d="M349.14,99.07a2.87,2.87,0,0,1,2.28,1,3.1,3.1,0,0,1,.52,2.53l-1.72,9.82H348l1.72-9.87c.17-1-.17-1.5-1.05-1.5h-.35a5.57,5.57,0,0,0-2.67.74l-1.18.66,0,.15-1.72,9.82h-2.25l1.74-9.87c.17-1-.2-1.5-1.08-1.5h-.34a5.77,5.77,0,0,0-2.66.74l-1.15.62-1.79,10h-2.24l2.34-13.26h2.23l-.34,1.8,1.1-.86a4.56,4.56,0,0,1,2.82-1h.52a3,3,0,0,1,1.84.56,2.4,2.4,0,0,1,.93,1.52l1.4-1a4.52,4.52,0,0,1,2.8-1Z"/>
    <path class="cls-2" d="M363.11,102.43c.17-.93-.15-1.4-1-1.4h-2.7a1.32,1.32,0,0,0-1,.45,2.13,2.13,0,0,0-.52,1.1l-.14.84c-.08.36-.05.61.07.73a1.59,1.59,0,0,0,.81.3l3.61.61c1.86.32,2.68,1.3,2.36,3l-.27,1.37a4,4,0,0,1-1.26,2.36,3.63,3.63,0,0,1-2.45.81h-3.71a2.67,2.67,0,0,1-2.21-.91,2.94,2.94,0,0,1-.47-2.43l.15-.86h2.21l-.15.93a1.36,1.36,0,0,0,.15,1,.93.93,0,0,0,.84.37h3.16a1.45,1.45,0,0,0,1-.44,2,2,0,0,0,.56-1.13l.2-1.13a.91.91,0,0,0-.1-.79,1.73,1.73,0,0,0-.84-.32l-3.56-.63c-1.89-.35-2.7-1.31-2.38-2.93l.2-1A3.91,3.91,0,0,1,357,99.91a3.59,3.59,0,0,1,2.43-.86h3.24a2.75,2.75,0,0,1,2.24.93,2.94,2.94,0,0,1,.51,2.43l-.1.64h-2.21Z"/>
  </g>
</svg>
