<?xml version="1.0" encoding="UTF-8" standalone="no"?>
<!DOCTYPE svg PUBLIC "-//W3C//DTD SVG 1.1//EN" "http://www.w3.org/Graphics/SVG/1.1/DTD/svg11.dtd">
<svg xmlns="http://www.w3.org/2000/svg" width="210.00002mm" height="52.500004mm" version="1.1" viewBox="0 0 21000.001 5250.0004">
  <defs>
    <style type="text/css"><![CDATA[
    .fil4 {fill:#C01F10;fill-rule:nonzero}
    .fil3 {fill:#D73408;fill-rule:nonzero}
    .fil2 {fill:#E55900;fill-rule:nonzero}
    .fil1 {fill:#F49300;fill-rule:nonzero}
    .fil0 {fill:#FAB900;fill-rule:nonzero}
    .fil5 {fill:white;fill-rule:nonzero}
 ]]></style>
  </defs>
  <g id="Layer_x0020_1" transform="translate(-4362,-7752)">
    <g id="_675265616">
      <path class="fil0" d="m 4362,10377 c 0,1025 437,1953 1144,2625 l 5526,0 c 707,-672 1145,-1600 1145,-2625 0,-1025 -438,-1953 -1145,-2625 l -5526,0 c -707,672 -1144,1600 -1144,2625 z"/>
      <path class="fil1" d="m 7638,10377 c 0,1025 438,1953 1145,2625 l 5526,0 c 707,-672 1144,-1600 1144,-2625 0,-1025 -437,-1953 -1144,-2625 l -5526,0 c -707,672 -1145,1600 -1145,2625 z"/>
      <path class="fil2" d="m 10954,10377 c 0,1025 437,1953 1144,2625 l 5526,0 c 708,-672 1145,-1600 1145,-2625 0,-1025 -437,-1953 -1145,-2625 l -5526,0 c -707,672 -1144,1600 -1144,2625 z"/>
      <path class="fil3" d="m 14270,10377 c 0,1025 437,1953 1144,2625 l 5526,0 c 707,-672 1145,-1600 1145,-2625 0,-1025 -438,-1953 -1145,-2625 l -5526,0 c -707,672 -1144,1600 -1144,2625 z"/>
      <path class="fil4" d="m 17586,10377 c 0,1025 437,1953 1144,2625 l 5487,0 c 707,-672 1145,-1600 1145,-2625 0,-1025 -438,-1953 -1145,-2625 l -5487,0 c -707,672 -1144,1600 -1144,2625 z"/>
      <path class="fil5" d="m 7340,10111 -146,-20 c -317,-42 -431,-139 -431,-289 0,-166 126,-286 370,-286 227,0 431,70 642,201 20,12 41,8 57,-12 l 248,-351 c 20,-27 16,-43 -8,-58 -232,-170 -573,-274 -939,-274 -598,0 -980,320 -980,803 0,463 313,714 874,788 l 146,19 c 330,43 427,139 427,294 0,185 -162,312 -451,312 -293,0 -541,-131 -723,-270 -21,-15 -45,-15 -61,4 l -309,336 c -21,23 -13,50 4,66 215,196 634,359 1065,359 715,0 1085,-352 1085,-827 0,-475 -301,-722 -870,-795 z"/>
      <path class="fil5" d="m 9533,9022 c -484,0 -866,212 -1008,637 -61,181 -78,328 -78,718 0,390 17,537 78,718 142,425 524,638 1008,638 483,0 866,-213 1008,-638 61,-181 77,-328 77,-718 0,-390 -16,-537 -77,-718 -142,-425 -525,-637 -1008,-637 z m 435,1919 c -61,181 -208,290 -435,290 -228,0 -374,-109 -435,-290 -33,-93 -45,-220 -45,-564 0,-343 12,-471 45,-564 61,-181 207,-289 435,-289 227,0 374,108 435,289 32,93 44,221 44,564 0,344 -12,471 -44,564 z"/>
      <path class="fil5" d="m 12416,11184 -848,0 c -14,0 -25,-10 -25,-23 l 0,-2058 c 0,-21 -18,-39 -40,-39 l -516,0 c -23,0 -41,18 -41,39 l 0,2549 c 0,21 18,38 41,38 l 1268,0 c 17,0 32,-10 38,-26 l 161,-428 c 10,-25 -10,-52 -38,-52 z"/>
      <path class="fil5" d="m 14162,9103 c -8,-23 -24,-39 -53,-39 l -512,0 c -28,0 -44,16 -53,39 l -951,2549 c -8,23 0,38 29,38 l 532,0 c 29,0 45,-11 53,-38 l 154,-460 968,0 158,460 c 9,27 25,38 53,38 l 529,0 c 28,0 36,-15 28,-38 l -935,-2549 z m -634,1606 313,-919 12,0 313,919 -638,0 z"/>
      <path class="fil5" d="m 16979,10609 c 305,-127 492,-394 492,-730 0,-479 -374,-815 -939,-815 l -1101,0 c -25,0 -41,16 -41,39 l 0,2549 c 0,23 16,38 41,38 l 516,0 c 24,0 40,-15 40,-38 l 0,-939 c 0,-15 9,-23 25,-23 l 370,0 475,962 c 12,27 25,38 61,38 l 577,0 c 29,0 41,-23 29,-46 l -545,-1035 z m -479,-402 -488,0 c -16,0 -25,-7 -25,-23 l 0,-606 c 0,-16 9,-23 25,-23 l 488,0 c 227,0 374,127 374,324 0,201 -147,328 -374,328 z"/>
      <path class="fil5" d="m 19941,10231 -951,0 c -25,0 -41,15 -41,38 l 0,371 c 0,23 16,38 41,38 l 374,0 c 16,0 24,8 24,24 0,112 -12,193 -33,258 -56,174 -235,271 -443,271 -239,0 -390,-109 -451,-290 -32,-93 -44,-220 -44,-564 0,-343 12,-467 44,-560 61,-181 208,-293 443,-293 228,0 366,93 476,270 8,19 28,27 57,19 l 435,-173 c 24,-12 28,-35 16,-58 -130,-317 -467,-560 -984,-560 -492,0 -874,212 -1016,637 -61,182 -77,328 -77,718 0,390 16,537 77,718 142,425 524,638 1016,638 488,0 870,-236 1008,-657 49,-143 69,-359 69,-591 l 0,-216 c 0,-23 -16,-38 -40,-38 z"/>
      <path class="fil5" d="m 20993,9064 -516,0 c -24,0 -40,16 -40,39 l 0,2549 c 0,23 16,38 40,38 l 516,0 c 25,0 41,-15 41,-38 l 0,-2549 c 0,-23 -16,-39 -41,-39 z"/>
      <path class="fil5" d="m 22709,10111 -147,-20 c -317,-42 -431,-139 -431,-289 0,-166 126,-286 370,-286 228,0 431,70 643,201 20,12 40,8 56,-12 l 248,-351 c 21,-27 17,-43 -8,-58 -231,-170 -573,-274 -939,-274 -597,0 -979,320 -979,803 0,463 313,714 874,788 l 146,19 c 329,43 427,139 427,294 0,185 -163,312 -451,312 -293,0 -541,-131 -724,-270 -20,-15 -45,-15 -61,4 l -309,336 c -20,23 -12,50 4,66 216,196 634,359 1065,359 716,0 1085,-352 1085,-827 0,-475 -300,-722 -869,-795 z"/>
    </g>
  </g>
</svg>
