<?xml version="1.0" encoding="UTF-8" standalone="no"?>
<!-- Created with Inkscape (http://www.inkscape.org/) -->

<svg
   xmlns:dc="http://purl.org/dc/elements/1.1/"
   xmlns:cc="http://creativecommons.org/ns#"
   xmlns:rdf="http://www.w3.org/1999/02/22-rdf-syntax-ns#"
   xmlns:svg="http://www.w3.org/2000/svg"
   xmlns="http://www.w3.org/2000/svg"
   xmlns:sodipodi="http://sodipodi.sourceforge.net/DTD/sodipodi-0.dtd"
   xmlns:inkscape="http://www.inkscape.org/namespaces/inkscape"
   version="1.1"
   width="400"
   height="400"
   id="svg4141"
   sodipodi:docname="no_avatar.svg"
   inkscape:version="0.92.2 (5c3e80d, 2017-08-06)">
  <sodipodi:namedview
     pagecolor="#ffffff"
     bordercolor="#666666"
     borderopacity="1"
     objecttolerance="10"
     gridtolerance="10"
     guidetolerance="10"
     inkscape:pageopacity="0"
     inkscape:pageshadow="2"
     inkscape:window-width="1920"
     inkscape:window-height="1016"
     id="namedview10"
     showgrid="false"
     inkscape:zoom="1.4142136"
     inkscape:cx="359.17663"
     inkscape:cy="218.43589"
     inkscape:window-x="0"
     inkscape:window-y="27"
     inkscape:window-maximized="1"
     inkscape:current-layer="svg4141" />
  <defs
     id="defs4143" />
  <metadata
     id="metadata3064">
    <rdf:RDF>
      <cc:Work
         rdf:about="">
        <dc:title></dc:title>
        <dc:description>This is my vectorized portrait that I use on my websites and profiles.</dc:description>
        <dc:subject>
          <rdf:Bag>
            <rdf:li>Jakub</rdf:li>
            <rdf:li>Jankiewicz</rdf:li>
            <rdf:li>Kuba</rdf:li>
            <rdf:li>jcubic</rdf:li>
            <rdf:li>portrait</rdf:li>
            <rdf:li>stripes</rdf:li>
            <rdf:li>vectorized</rdf:li>
            <rdf:li>Poland</rdf:li>
            <rdf:li>people</rdf:li>
            <rdf:li>face</rdf:li>
            <rdf:li>head</rdf:li>
            <rdf:li>man</rdf:li>
            <rdf:li>avatar</rdf:li>
            <rdf:li>colour</rdf:li>
          </rdf:Bag>
        </dc:subject>
        <dc:publisher>
          <cc:Agent
             rdf:about="http://www.openclipart.org">
            <dc:title>Open Clip Art Library</dc:title>
          </cc:Agent>
        </dc:publisher>
        <dc:creator>
          <cc:Agent>
            <dc:title>Jakub Jankiewicz</dc:title>
          </cc:Agent>
        </dc:creator>
        <dc:rights>
          <cc:Agent>
            <dc:title>Jakub Jankiewicz</dc:title>
          </cc:Agent>
        </dc:rights>
        <dc:date />
        <dc:format>image/svg+xml</dc:format>
        <dc:type
           rdf:resource="http://purl.org/dc/dcmitype/StillImage" />
        <cc:license
           rdf:resource="http://web.resource.org/cc/PublicDomain" />
        <dc:language>pl</dc:language>
      </cc:Work>
      <cc:License
         rdf:about="http://web.resource.org/cc/PublicDomain">
        <cc:permits
           rdf:resource="http://web.resource.org/cc/Reproduction" />
        <cc:permits
           rdf:resource="http://web.resource.org/cc/Distribution" />
        <cc:permits
           rdf:resource="http://web.resource.org/cc/DerivativeWorks" />
      </cc:License>
    </rdf:RDF>
  </metadata>
  <rect
     width="399.98547"
     height="399.23154"
     rx="0"
     ry="0"
     x="0.28983441"
     y="0.3389959"
     id="rect4371"
     style="color:#000000;display:inline;overflow:visible;visibility:visible;fill:#d7e3f4;stroke:none;stroke-width:14.85594082;marker:none;enable-background:accumulate" />
  <path
     d="m 116.38731,313.60455 c 0,0 -58.268023,13.44967 -103.38607,33.51216 -6.1438448,2.73195 -10.0499931,3.17699 -12.92325804,7.28522 0.09272859,11.39349 -0.50884998,46.33449 0.21185576,45.71494 L 400.69899,399.75259 c 0.0165,-10.74571 0.494,-46.09203 0,-51.36095 -3.24814,-3.99405 -3.81343,-4.18905 -8.05056,-6.37463 -4.23714,-2.18557 -127.11401,-34.24066 -127.11401,-34.24066 z"
     id="path3156"
     style="opacity:0.77570095;fill:#87aade;fill-opacity:1;stroke:none;stroke-width:4.78422117"
     inkscape:connector-curvature="0" />
  <path
     d="m 284.27284,217.54746 c 0.19329,-0.4542 0.4213,-0.61553 0.58366,-1.03831 0.2712,-0.72683 0.37155,-1.49296 0.52548,-2.25731 0.21114,-1.04506 0.4504,-2.09281 0.65684,-3.16023 0.21863,-1.12437 0.38659,-2.29979 0.65685,-3.38601 0.27022,-1.08613 0.62025,-2.08447 1.0503,-3.04733 0.61838,-1.39062 1.13438,-2.63977 1.5755,-3.83747 0.70752,-1.92132 1.37525,-4.22652 1.83804,-6.65904 0.34814,-1.80036 0.66249,-3.72159 0.26274,-5.64327 -0.22424,-1.19698 -0.33967,-2.24279 -1.63563,-2.87345 -0.4823,-0.21381 -1.06645,-0.33713 -1.5754,-0.3389 -0.84829,-0.003 -1.62336,0.18808 -2.36316,0.45175 -0.94437,0.32915 -1.86198,0.87596 -2.62579,1.35433 -0.6456,0.40411 -1.61539,1.22626 -2.29756,1.54632 l -1.85109,0.2138 c 0.15386,-0.36862 -0.18581,-1.09443 -0.0751,-1.53495 1.4661,-6.07361 4.06035,-26.66308 3.94315,-36.74257 -0.26837,-22.97772 7.7357,-32.11409 -11.58407,-52.189178 -4.8571,-5.047003 -12.24674,-10.965869 -18.5902,-14.729118 3.34007,0.749449 5.93622,1.083338 9.68878,2.674944 -8.25207,-5.731949 -15.57685,-8.860507 -21.76727,-11.602603 2.97955,0.395239 6.78308,1.22431 9.88593,1.647894 -20.00754,-8.502477 -33.63873,-9.500734 -46.72463,-9.42417 l -3.30856,0.304746 c -5.75716,0.03105 -8.10897,0.298537 -12.23566,1.049669 -12.90022,-0.496112 -31.01391,-1.869468 -49.24529,5.733409 2.5801,-0.124206 4.76627,-0.208045 6.82691,-0.225789 -8.1651,3.271524 -17.25736,7.493798 -27.45202,16.974925 2.30713,-1.088218 4.32947,-2.028667 6.3017,-2.821549 -7.78552,6.321568 -16.4425,16.33048 -20.61216,25.48526 -4.57194,10.03823 -3.5664,54.28475 -1.78559,61.96335 1.64268,7.08245 0.0656,11.67916 -0.11073,12.29429 -0.0656,-0.031 -0.0656,-0.0869 -0.13138,-0.11312 -1.17557,-0.48565 -3.006862,-1.03419 -4.421337,-0.48968 -1.403592,0.6389 -1.912646,1.76801 -2.18787,2.97006 -0.500149,1.98609 0.06565,3.85933 0.525479,5.6426 0.733791,2.97548 1.606747,5.87257 2.406323,8.12703 0.291844,0.82162 0.655903,1.64678 1.007129,2.59594 0.348136,0.93503 0.660596,1.93352 0.831376,3.00953 0.17172,1.07589 0.24304,2.29386 0.35,3.42386 0.0966,1.04088 0.0657,1.97877 0.17457,3.00945 0.0751,0.75588 0.0938,1.52209 0.30587,2.25739 0.23271,0.76959 0.59023,1.40791 1.04288,2.01736 0.0376,0.0483 0.0975,0.17965 0.13138,0.22579 0.0938,0.62599 0.85953,1.5078 0.87266,2.87371 0.009,1.05814 0.4373,2.30809 0.30871,3.53347 -0.12574,1.22528 -0.33127,2.42732 -0.52548,3.57702 -0.14261,0.82987 -0.25334,1.62106 -0.28245,2.33555 -0.0284,0.50902 0.047,1.11226 0.13138,1.69292 0.18766,1.35051 0.69062,2.59589 1.64624,3.84633 0.5602,0.74376 0.24489,0.78896 1.17125,1.178 0.79198,0.32515 1.507,0.55746 2.28246,0.64214 1.00807,0.11222 2.02721,0.22889 2.84799,0.45175 1.12265,0.3043 1.9499,0.51709 2.82999,1.11128 1.21686,0.82149 2.2483,1.38933 4.00096,2.49423 0.13982,0.37926 0.42883,0.67438 0.57239,1.08493 0.4889,1.39655 1.24669,3.11725 2.1006,4.74029 1.29925,2.46655 3.13626,5.2582 4.86076,7.8273 l 0.0657,1.20075 c 6.54539,25.02059 1.8677,45.52126 -10.74997,61.12279 21.75696,38.26545 56.00857,34.80625 86.24806,36.07762 29.65565,1.24675 74.58159,-21.08124 71.5585,-36.30332 -10.17008,-14.82195 -12.17102,-35.64725 -9.37247,-54.00352 0.78821,-4.99944 1.40453,-6.96689 2.80821,-9.51896 1.28835,-2.45567 2.1507,-3.82721 3.36241,-5.98568 1.67251,-2.98692 2.5723,-6.0248 3.15089,-8.57771 0.0845,-0.36064 0.18767,-0.81381 0.35939,-1.27067 0.51139,-0.3114 1.1522,-0.5913 1.45876,-0.76072 0.90364,-0.50014 2.23883,-1.17998 3.80738,-1.6929 0.46448,-0.14994 0.94435,-0.28967 1.44421,-0.5647 0.5358,-0.3043 0.96435,-0.79939 1.31276,-1.24148 0.95636,-1.19352 1.5769,-2.55228 1.83805,-3.95039 0.24395,-1.33645 0.51325,-2.49431 0.46449,-3.51603 -0.004,-0.11933 0.004,-0.21381 0,-0.33891 -0.0657,-1.32292 -0.49923,-3.02142 -0.33405,-4.62754 0.16233,-1.58773 0.55082,-3.16062 0.91959,-4.28894 0.36785,-1.12818 0.61556,-1.43203 0.86046,-2.00907 l -9e-5,1.4e-4 v 8e-5 h -1.8e-4 3.7e-4 -1.9e-4 z"
     id="path6671"
     style="color:#000000;display:inline;overflow:visible;visibility:visible;fill:#87aade;fill-opacity:1;fill-rule:nonzero;stroke:none;stroke-width:4.78422117;marker:none;enable-background:accumulate"
     inkscape:connector-curvature="0" />
  <path
     d="m 203.142,66.106257 c -5.75726,0.03105 -10.70868,0.489679 -14.83538,1.241521 -13.78723,-1.44921 -35.51913,-0.83293 -52.90852,7.67496 2.5801,-0.124205 4.76628,-0.208932 6.8269,-0.225788 -8.16508,3.271477 -17.50687,8.915998 -27.70152,18.397165 2.30721,-1.088265 4.46075,-2.028675 6.43307,-2.821682 -7.78561,6.321568 -14.07916,13.982687 -18.24893,23.137557 -4.571923,10.03823 -3.093651,54.28474 -1.31285,61.96335 1.64269,7.08253 0.57053,11.23579 0.39411,11.85101 -0.0656,-0.0311 -0.0656,-0.0865 -0.13136,-0.11312 -1.17567,-0.48565 -2.786537,-0.88261 -4.201202,-0.33891 -1.403591,0.63891 -1.956746,1.95815 -2.231782,3.16023 -0.500141,1.98613 0.06573,3.97293 0.525479,5.75616 0.733792,2.97566 1.694864,5.75897 2.494431,8.01351 0.291844,0.82163 0.568641,1.7596 0.918639,2.70884 0.348143,0.93499 0.616504,1.97136 0.78729,3.04733 0.171715,1.07597 0.287145,2.14307 0.394105,3.27308 0.0966,1.04097 0.1567,2.12959 0.26275,3.16022 0.0751,0.75588 0.17734,1.52218 0.39411,2.25739 0.23271,0.76959 0.59772,1.42211 1.05029,2.03156 0.0377,0.0483 0.0957,0.0643 0.13137,0.11311 0.0938,0.626 0.67656,1.56863 0.69157,2.93453 0.009,1.05823 0.39597,2.2735 0.26836,3.49887 -0.12573,1.22528 -0.33126,2.46202 -0.52547,3.61172 -0.14262,0.82986 -0.23457,1.65573 -0.26274,2.37014 -0.0284,0.50907 0.0563,0.99946 0.13137,1.58016 0.18766,1.35051 0.4082,2.61612 1.3638,3.8666 0.5602,0.74377 1.12321,1.07247 2.0489,1.46181 0.79197,0.32515 2.03378,0.67599 2.80925,0.76066 1.00798,0.11223 2.06747,0.22891 2.88815,0.45176 1.12274,0.30431 1.90496,0.6865 2.49452,1.01583 -0.55832,-0.36376 -1.40743,-0.8698 -2.49452,-1.24153 -0.82857,-0.28079 -1.75575,-0.50902 -2.75689,-0.67763 -0.75818,-0.13219 -2.03077,-0.4427 -2.67796,-0.76071 -0.76101,-0.35576 -1.17266,-0.65585 -1.65506,-1.34887 -0.81732,-1.19712 -0.96332,-2.2938 -1.10117,-3.52805 -0.0994,-0.84642 -0.0656,-1.75884 0,-2.483 0.0376,-0.43339 0.0751,-0.84473 0.13138,-1.35437 0.13228,-1.09509 0.23271,-2.37752 0.26273,-3.61176 0.0284,-1.23429 -0.41661,-2.41416 -0.53111,-3.49887 -0.13044,-1.24028 -0.7901,-2.15274 -0.95393,-2.82163 0.38663,0.48401 0.79197,0.94697 1.18158,1.35437 1.14395,1.20221 2.02975,2.1767 2.62569,2.93448 0.59587,0.75747 0.91866,1.24153 0.91866,1.24153 0,0 -0.23456,-0.45903 -0.78822,-1.24153 -0.55269,-0.78249 -1.40659,-1.90788 -2.49442,-3.16023 -0.43916,-0.50737 -1.03304,-0.97585 -1.44413,-1.58006 -0.41099,-0.60422 -0.74505,-1.30966 -0.91866,-2.03165 -0.17171,-0.69214 -0.21768,-1.49246 -0.26273,-2.2573 -0.0657,-1.02004 -0.0752,-1.99074 -0.13138,-3.04738 -0.0563,-1.10791 -0.12289,-2.2785 -0.26274,-3.38602 -0.13884,-1.10742 -0.30494,-2.12918 -0.65684,-3.16013 -0.534863,-1.56197 -1.004887,-3.10349 -1.444033,-4.4018 -0.624941,-1.84715 -1.359953,-3.93535 -1.969423,-6.20769 -0.137921,-0.52836 -0.255207,-1.04288 -0.394114,-1.58006 0.38096,0.83634 0.852033,1.25096 1.575402,1.91874 1.931605,1.78328 3.282178,0.11312 3.282178,0.11312 1.57503,1.04669 4.26548,4.35801 8.9275,13.20533 -0.35283,-0.60098 -0.96022,-0.83195 -1.5755,-1.12867 -1.12555,-0.54286 -3.35133,0.3775 -3.54463,1.80582 -0.3359,2.4818 1.95431,9.25205 2.23187,7.90056 0.20832,-1.01382 -1.25766,-4.41261 -0.39411,-5.98186 0.44949,-0.8167 2.27167,-1.03299 3.67611,-0.56469 0.37063,0.12421 0.23456,-0.77362 0,-1.35441 -0.006,-0.0266 0.006,-0.0958 0,-0.11312 -3.59587,-8.25203 -6.92487,-14.01657 -9.71525,-16.81709 -1.652537,-1.65854 -3.393091,-2.52922 -4.201109,-2.48301 -0.327502,0.0222 -0.532982,0.5018 -0.65685,0.90294 -0.0039,-0.43472 0.0284,-0.81444 0.131371,-1.24148 0.289935,-1.13236 0.731922,-2.35072 1.83795,-2.82167 1.044109,-0.50015 2.409598,-0.22979 3.544738,0.22578 4.89642,1.9643 6.42115,4.86686 8.66495,8.40856 1.1035,1.74168 3.44863,7.38216 4.79199,12.02015 -0.67844,-4.97561 -2.31371,-9.2167 -2.88836,-10.72224 l 7.54905,0.11311 c 0.0657,1.28943 0.18674,2.56068 0.52549,3.83747 0.53203,2.03954 1.67721,4.07557 3.54482,5.53041 2.50944,1.90429 5.72799,2.68687 8.79612,3.38598 4.97816,1.16048 10.09558,1.68458 15.22931,1.693 6.75652,0.0177 13.54166,-0.40988 20.21815,-1.35437 2.36924,-0.33491 4.76158,-0.74377 7.08945,-1.35446 0.78071,-0.20405 1.59416,-0.36241 2.36315,-0.67758 0.46918,-0.17744 0.99597,-0.46386 1.44422,-0.90298 1.23309,-1.31285 1.80079,-2.90827 2.23187,-4.4017 0.51985,-1.73422 0.80417,-3.46879 1.18158,-5.19178 0.26182,-1.20883 0.21207,-2.54741 -0.13138,-3.72462 3.9167,-2.52535 8.68072,-2.81932 11.02811,-2.82163 2.4431,-0.002 6.53412,0.76715 10.37163,2.483 0.006,0.48644 0.0284,0.98708 0.13136,1.46726 0.40351,1.7186 0.89707,3.46374 1.44413,5.19192 0.45416,1.48833 0.9786,3.103 2.23187,4.4017 0.45511,0.43384 0.97232,0.73087 1.44422,0.90293 0.77415,0.30653 1.57991,0.48241 2.36315,0.67683 2.33726,0.58404 4.71523,0.93426 7.08945,1.24157 6.69047,0.86851 13.46248,1.21908 20.21816,1.12868 5.13307,-0.0643 10.26944,-0.58892 15.2292,-1.80586 3.05716,-0.7341 6.31653,-1.679 8.79622,-3.61176 1.845,-1.4761 2.91303,-3.4849 3.41346,-5.53037 0.32187,-1.2929 0.48796,-2.64798 0.52548,-3.95036 l 10.36477,-1.91866 c -1.18251,1.98098 -2.20297,5.02126 -3.14405,8.23916 1.34476,-3.12962 3.4934,-6.9323 4.85766,-8.91639 0.34061,-0.49612 1.21519,-1.67793 2.10052,-2.37016 0.88861,-0.69133 1.89642,-1.37876 3.01962,-2.03164 0.77414,-0.44771 1.60956,-0.85227 2.49443,-1.12862 1.16234,-0.33891 2.48804,-0.73654 3.41345,-0.2258 0.6118,0.27193 1.06071,0.82442 1.31295,1.46727 -0.26651,-0.11045 -0.64184,-0.11844 -1.05041,-0.11311 -0.96021,0.0178 -2.35273,0.37438 -3.93854,1.4673 -3.23432,2.22802 -6.09142,7.13999 -10.5029,19.18725 -0.0656,0.18054 -0.0656,0.37972 -0.13137,0.56464 -0.0563,0.32737 0.009,0.75185 0.26274,0.67764 2.30329,-0.69458 4.04431,-0.0222 4.33247,1.58015 0.30496,1.69825 -2.16159,4.70455 -1.5754,5.07894 0.60148,0.38414 1.4248,-1.23279 2.10051,-2.59594 0.76569,-1.54374 1.3912,-2.92473 1.31293,-4.17609 -0.18672,-2.97654 -2.81665,-4.49886 -4.98884,-2.70871 5.06007,-11.0446 7.31118,-13.49153 8.92741,-14.44685 0,0 0.65496,1.34293 3.01961,0 1.04412,-0.5929 2.12791,-1.30109 2.62571,-2.2573 0.10697,1.50887 -0.21394,3.01744 -0.52549,4.5146 -0.64277,3.04188 -1.59604,5.83924 -2.49451,8.1264 -0.27492,0.69941 -0.58646,1.46261 -0.91865,2.2573 -0.4129,0.99063 -0.67468,2.04029 -0.91865,3.16023 -0.24396,1.11998 -0.48136,2.34335 -0.65684,3.49886 -0.16418,1.07176 -0.22992,2.1095 -0.39412,3.16023 -0.12197,0.77118 -0.29933,1.56224 -0.52548,2.25735 -0.21862,0.70908 -0.64464,1.26032 -1.18156,1.80581 -0.53675,0.5453 -1.1509,1.13062 -1.70677,1.58011 -0.68031,0.54376 -1.3077,0.99089 -1.83806,1.46731 -0.53016,0.47677 -0.97438,0.86536 -1.31284,1.24153 0.34998,-0.3469 0.91677,-0.69702 1.44412,-1.12868 0.5527,-0.45254 1.1279,-0.94657 1.83805,-1.46726 0.5799,-0.42274 1.25449,-0.91761 1.83805,-1.46732 0.58365,-0.54934 1.14367,-1.13541 1.44413,-1.91861 0.27119,-0.72687 0.37155,-1.49299 0.52547,-2.25739 0.21114,-1.0451 0.45041,-2.09281 0.65686,-3.16022 0.21861,-1.12437 0.38657,-2.2998 0.65683,-3.38593 0.27023,-1.08622 0.62026,-2.08461 1.05031,-3.04738 0.61838,-1.39074 1.13437,-2.75262 1.5754,-3.95031 0.70752,-1.92137 1.37534,-4.22657 1.83805,-6.65918 0.34813,-1.80026 0.66247,-3.72151 0.26274,-5.64323 -0.22425,-1.19699 -0.67375,-2.52962 -1.96932,-3.16023 -0.4823,-0.21381 -1.06644,-0.33712 -1.57542,-0.3389 -0.84826,-0.003 -1.62334,0.29986 -2.36314,0.5647 -0.94436,0.32914 -1.86198,0.76315 -2.6257,1.24152 -0.64559,0.40411 -1.14272,0.81989 -1.70678,1.24156 l -1.96942,0.2249 c 0.15388,-0.36862 0.28809,-0.80104 0.39412,-1.24157 1.46609,-6.07355 5.3688,-26.2634 5.2514,-36.34279 -0.26743,-22.97777 6.19108,-32.52046 -13.1287,-52.595559 -4.8571,-5.046996 -10.59242,-9.554899 -16.93587,-13.318141 3.34016,0.749442 6.88151,1.907264 10.63416,3.498815 -8.25206,-5.731895 -15.34058,-9.673152 -21.53099,-12.415253 2.97955,0.395239 5.95583,0.817981 9.05878,1.241565 C 233.28588,68.550529 216.22773,66.028406 203.14181,66.10497 h 1.9e-4 z m 30.98371,42.099053 c 6.9851,0.005 12.69845,1.28428 16.14823,5.19183 10.03569,11.36736 12.8376,19.71662 14.04771,29.34515 1.21001,9.62841 0.97026,16.67954 4.85758,22.0088 3.61548,4.95681 4.3976,19.88124 3.80728,24.04048 l -7.74593,0.67758 c -0.38193,-0.57357 -0.75349,-1.01529 -1.31285,-1.46727 -1.7002,-1.36421 -3.85082,-2.22957 -5.90786,-2.93452 -3.52737,-1.21939 -7.32029,-1.76705 -11.02811,-2.14446 -3.16901,-0.32515 -6.26755,-0.52192 -9.45261,-0.56468 -2.52474,-0.031 -5.1342,0.12597 -7.61464,0.33889 -3.01212,0.25729 -5.94429,0.58483 -8.9275,1.0157 -2.75342,0.3979 -5.55535,0.84583 -8.27103,1.46731 -1.04533,0.23865 -2.11872,0.57112 -3.1509,0.90292 -0.7094,0.22357 -1.40744,0.49048 -2.10061,0.90294 -1.70254,1.03116 -2.92746,2.47736 -3.54472,4.176 -0.16325,0.44771 -0.31156,0.88775 -0.39412,1.35437 -3.14094,-1.36254 -7.49509,-2.16366 -10.89681,-2.14444 -3.51977,0.0222 -8.72651,1.13176 -11.15937,2.59593 -0.70754,-1.36485 -1.83853,-2.64886 -3.28218,-3.49887 -0.69908,-0.40411 -1.51939,-0.57436 -2.23188,-0.78976 -1.03717,-0.32027 -2.1021,-0.56306 -3.1509,-0.78973 -2.72517,-0.59051 -5.38042,-1.10117 -8.13975,-1.46722 -2.98969,-0.39702 -6.04299,-0.68087 -9.05887,-0.90302 -2.48345,-0.18408 -4.95929,-0.287 -7.48327,-0.22579 -3.18412,0.0807 -6.42013,0.20316 -9.58398,0.56469 -3.70163,0.41964 -7.38851,1.11058 -10.89673,2.3702 -2.04598,0.72847 -4.22898,1.55106 -5.90797,2.93452 -1.07141,0.88883 -1.7901,2.01279 -2.10052,3.27308 l -4.59501,-0.22579 c -1.07592,-2.5906 -4.17512,-10.55767 -3.41345,-15.0111 0.74692,-4.36892 4.26744,-4.4065 4.7263,-10.72234 0.45887,-6.31584 -1.32196,-29.51296 0.91865,-36.00421 2.24098,-6.49123 12.1741,-19.70358 21.00589,-22.00878 15.26937,-3.98571 27.73625,3.70274 50.02018,2.93448 14.62379,-0.50414 32.48366,-5.20678 45.81909,-5.19188 l -2e-4,1.9e-4 z m -0.39412,75.28158 c 1.22915,-0.0643 2.45436,-0.0222 3.676,0 3.14677,0.04 6.33371,0.13085 9.4527,0.45175 3.66117,0.37927 7.27918,0.97594 10.63418,2.1444 2.00376,0.7043 4.02769,1.49065 5.51404,2.70884 1.16535,0.94808 1.94503,2.26679 1.96924,3.61162 0.047,1.84454 -0.0845,3.6578 -0.52549,5.41762 -0.48513,1.88805 -1.41766,3.71999 -3.01952,4.96608 -2.17388,1.7423 -5.12116,2.6273 -8.13985,3.38602 -4.82662,1.18736 -9.92272,1.62434 -14.96665,1.69301 -6.69451,0.0887 -13.34508,-0.15748 -19.95551,-1.01579 -2.34991,-0.30563 -4.70847,-0.67682 -6.95827,-1.24161 -0.75537,-0.1903 -1.55072,-0.40499 -2.23188,-0.67678 -0.43915,-0.18941 -0.85577,-0.34024 -1.05029,-0.56469 -1.05152,-1.03716 -1.48674,-2.48335 -1.96932,-3.95031 -0.0656,-0.19917 -0.0751,-0.47677 -0.13045,-0.67762 0.16326,-0.39923 0.10604,-1.06436 0,-1.91871 0.69908,-0.30652 1.09403,-1.00243 0.91865,-1.69301 -0.17734,-0.69941 -0.90926,-1.22467 -1.70668,-1.24153 -0.18674,-0.44447 -0.3228,-0.84024 -0.52548,-1.12862 7.6e-4,-0.0807 -0.004,-0.14506 0,-0.22579 v -0.3389 c 0.0563,-0.5768 0.19422,-1.13915 0.39412,-1.69301 0.53487,-1.47045 1.69186,-2.73558 3.1509,-3.61166 0.52547,-0.32338 1.15286,-0.5647 1.83804,-0.78973 0.97318,-0.31362 1.99551,-0.55502 3.01962,-0.78977 2.65892,-0.60905 5.27665,-1.07203 8.00848,-1.46722 2.95628,-0.42763 5.94598,-0.76151 8.92742,-1.01587 1.23205,-0.10469 2.44693,-0.27103 3.676,-0.33891 v -3e-4 z m -85.5989,2.82163 c 0.61086,-0.0178 1.2253,-0.005 1.83795,0 1.83813,0.0222 3.66389,0.20317 5.51405,0.3389 2.98509,0.22002 5.96483,0.50903 8.92749,0.90294 2.73766,0.36374 5.47164,0.77526 8.13976,1.35436 1.02768,0.22357 2.04167,0.48725 3.01962,0.78977 0.68875,0.21692 1.30751,0.47274 1.83804,0.78972 1.47246,0.85941 2.59316,2.14743 3.15081,3.61168 0.27776,0.73569 0.50299,1.48909 0.52549,2.25738 -0.19706,0.29056 -0.47667,0.68327 -0.65686,1.12863 -0.80604,0.0222 -1.53861,0.53325 -1.70676,1.24156 -0.16234,0.68331 0.36221,1.27573 1.05029,1.58012 -0.0957,0.86354 -0.0376,1.63117 0.13137,2.03155 -0.0563,0.20805 -0.20082,0.35799 -0.26274,0.5647 -0.4598,1.47228 -0.93366,3.01407 -1.96932,4.06316 -0.1905,0.22668 -0.48323,0.36862 -0.91864,0.56469 -0.67656,0.2799 -1.47895,0.47836 -2.23187,0.67762 -2.2409,0.59046 -4.48197,0.90857 -6.82691,1.24158 -6.59654,0.93415 -13.39163,1.36669 -20.08678,1.35436 -5.04469,-0.009 -9.99085,-0.44771 -14.83547,-1.58007 -3.03014,-0.72443 -6.20168,-1.55589 -8.40231,-3.27316 -1.6211,-1.22765 -2.50512,-2.97091 -3.01962,-4.85324 -0.47198,-1.75457 -0.54612,-3.68553 -0.52548,-5.53046 0.004,-1.34506 0.68781,-2.65032 1.83804,-3.61172 1.46732,-1.23505 3.39001,-1.98196 5.38279,-2.70875 3.3365,-1.20665 6.9791,-1.83561 10.63417,-2.25733 3.11374,-0.35665 6.30677,-0.59939 9.45261,-0.67763 l 1.9e-4,2.2e-4 z"
     id="path6685"
     style="fill:#87aade;stroke:none;stroke-width:4.78422117"
     inkscape:connector-curvature="0" />
  <path
     d="m 158.9705,279.72816 c 0,0 14.82996,20.21655 36.43935,20.76297 21.60938,0.54637 42.79505,-21.30934 42.79505,-21.30934 0,0 -16.31297,22.58426 -40.25277,22.58426 -23.93981,0 -38.98163,-22.03789 -38.98163,-22.03789 z"
     id="path3158"
     style="fill:#3062ad;fill-opacity:1;stroke:none;stroke-width:4.78422117"
     inkscape:connector-curvature="0" />
</svg>
