<?xml version="1.0" encoding="UTF-8" standalone="no"?>
<!-- Created with Inkscape (http://www.inkscape.org/) -->

<svg
   xmlns:dc="http://purl.org/dc/elements/1.1/"
   xmlns:cc="http://creativecommons.org/ns#"
   xmlns:rdf="http://www.w3.org/1999/02/22-rdf-syntax-ns#"
   xmlns:svg="http://www.w3.org/2000/svg"
   xmlns="http://www.w3.org/2000/svg"
   xmlns:sodipodi="http://sodipodi.sourceforge.net/DTD/sodipodi-0.dtd"
   xmlns:inkscape="http://www.inkscape.org/namespaces/inkscape"
   version="1.1"
   width="512"
   height="512"
   id="svg4141"
   sodipodi:docname="no_avatar.svg"
   inkscape:version="0.92.2 (5c3e80d, 2017-08-06)">
  <sodipodi:namedview
     pagecolor="#ffffff"
     bordercolor="#666666"
     borderopacity="1"
     objecttolerance="10"
     gridtolerance="10"
     guidetolerance="10"
     inkscape:pageopacity="0"
     inkscape:pageshadow="2"
     inkscape:window-width="1920"
     inkscape:window-height="1016"
     id="namedview10"
     showgrid="false"
     inkscape:zoom="1.3111111"
     inkscape:cx="174.08858"
     inkscape:cy="228.05085"
     inkscape:window-x="0"
     inkscape:window-y="27"
     inkscape:window-maximized="1"
     inkscape:current-layer="svg4141" />
  <defs
     id="defs4143" />
  <metadata
     id="metadata3064">
    <rdf:RDF>
      <cc:Work
         rdf:about="">
        <dc:title></dc:title>
        <dc:description>This is my vectorized portrait that I use on my websites and profiles.</dc:description>
        <dc:subject>
          <rdf:Bag>
            <rdf:li>Jakub</rdf:li>
            <rdf:li>Jankiewicz</rdf:li>
            <rdf:li>Kuba</rdf:li>
            <rdf:li>jcubic</rdf:li>
            <rdf:li>portrait</rdf:li>
            <rdf:li>stripes</rdf:li>
            <rdf:li>vectorized</rdf:li>
            <rdf:li>Poland</rdf:li>
            <rdf:li>people</rdf:li>
            <rdf:li>face</rdf:li>
            <rdf:li>head</rdf:li>
            <rdf:li>man</rdf:li>
            <rdf:li>avatar</rdf:li>
            <rdf:li>colour</rdf:li>
          </rdf:Bag>
        </dc:subject>
        <dc:publisher>
          <cc:Agent
             rdf:about="http://www.openclipart.org">
            <dc:title>Open Clip Art Library</dc:title>
          </cc:Agent>
        </dc:publisher>
        <dc:creator>
          <cc:Agent>
            <dc:title>Jakub Jankiewicz</dc:title>
          </cc:Agent>
        </dc:creator>
        <dc:rights>
          <cc:Agent>
            <dc:title>Jakub Jankiewicz</dc:title>
          </cc:Agent>
        </dc:rights>
        <dc:date />
        <dc:format>image/svg+xml</dc:format>
        <dc:type
           rdf:resource="http://purl.org/dc/dcmitype/StillImage" />
        <cc:license
           rdf:resource="http://web.resource.org/cc/PublicDomain" />
        <dc:language>pl</dc:language>
      </cc:Work>
      <cc:License
         rdf:about="http://web.resource.org/cc/PublicDomain">
        <cc:permits
           rdf:resource="http://web.resource.org/cc/Reproduction" />
        <cc:permits
           rdf:resource="http://web.resource.org/cc/Distribution" />
        <cc:permits
           rdf:resource="http://web.resource.org/cc/DerivativeWorks" />
      </cc:License>
    </rdf:RDF>
  </metadata>
  <rect
     width="511.17282"
     height="510.43301"
     rx="0"
     ry="0"
     x="0.38976991"
     y="0.98305136"
     id="rect4371"
     style="color:#000000;display:inline;overflow:visible;visibility:visible;fill:#d7e3f4;stroke:none;stroke-width:18.98973465;marker:none;enable-background:accumulate" />
  <path
     d="m 148.75985,401.50524 c 0,0 -74.465281,17.19593 -132.125176,42.8466 -7.8517024,3.4929 -12.843676,4.06191 -16.51564696,9.31444 0.11850515,14.56702 -0.65029934,59.24045 0.27074711,58.44832 L 512.10406,511.64886 c 0.0211,-13.73881 0.63133,-58.93045 0,-65.66697 -4.15104,-5.10655 -4.87347,-5.35587 -10.28843,-8.15021 -5.41497,-2.79434 -162.44898,-43.77802 -162.44898,-43.77802 z"
     id="path3156"
     style="opacity:0.77570095;fill:#87aade;fill-opacity:1;stroke:none;stroke-width:6.11547232"
     inkscape:connector-curvature="0" />
  <path
     d="m 363.31395,278.69252 c 0.24702,-0.58071 0.53842,-0.78698 0.74591,-1.32752 0.34659,-0.92928 0.47484,-1.9088 0.67154,-2.88605 0.26984,-1.33615 0.57561,-2.67574 0.83944,-4.04048 0.27939,-1.43755 0.49404,-2.94037 0.83944,-4.32915 0.34534,-1.38866 0.79266,-2.66508 1.34226,-3.89613 0.79027,-1.77796 1.4497,-3.37505 2.01345,-4.90635 0.90419,-2.45648 1.75754,-5.40377 2.34898,-8.51384 0.44492,-2.30183 0.84664,-4.7582 0.33578,-7.21515 -0.28658,-1.53038 -0.43409,-2.86749 -2.09031,-3.67381 -0.61636,-0.27337 -1.36289,-0.43103 -2.01333,-0.4333 -1.08408,-0.004 -2.07461,0.24047 -3.02006,0.57758 -1.20688,0.42083 -2.37957,1.11995 -3.35571,1.73157 -0.82505,0.51667 -2.06442,1.56782 -2.93623,1.97702 l -2.36565,0.27336 c 0.19663,-0.4713 -0.23746,-1.39927 -0.096,-1.9625 1.87363,-7.76534 5.18904,-34.08978 5.03926,-46.9768 -0.34296,-29.37791 9.88606,-41.05911 -14.8042,-66.72589 -6.20727,-6.45279 -15.65106,-14.02029 -23.75787,-18.83175 4.26854,0.9582 7.58636,1.38509 12.38206,3.42002 -10.54597,-7.32852 -19.90689,-11.328503 -27.81811,-14.834379 3.8078,0.505329 8.66862,1.565328 12.634,2.106897 C 294.6794,87.35512 277.25903,86.07881 260.53553,86.1767 l -4.22826,0.38963 c -7.35754,0.0397 -10.3631,0.381691 -15.63692,1.342042 -16.48619,-0.634298 -39.63511,-2.390187 -62.93441,7.330386 3.2973,-0.158802 6.09119,-0.265993 8.72463,-0.288679 -10.43481,4.18277 -22.05454,9.581111 -35.08309,21.703101 2.94847,-1.39133 5.53297,-2.59373 8.05344,-3.60746 -9.94973,8.08237 -21.01316,20.87915 -26.3419,32.58389 -5.84284,12.83427 -4.55779,69.40516 -2.28195,79.22255 2.09932,9.05519 0.0839,14.93226 -0.14151,15.71873 -0.0839,-0.0397 -0.0839,-0.11116 -0.16789,-0.14463 -1.50237,-0.62092 -3.84271,-1.32225 -5.65038,-0.62607 -1.79376,0.81686 -2.44432,2.26047 -2.79605,3.79733 -0.63918,2.5393 0.0839,4.93431 0.67155,7.21429 0.93777,3.80426 2.05339,7.50831 3.07523,10.39072 0.37297,1.05047 0.83823,2.10547 1.28709,3.31901 0.44491,1.19548 0.84423,2.47208 1.06248,3.84781 0.21946,1.37556 0.3106,2.93278 0.44729,4.37753 0.12351,1.33081 0.084,2.52993 0.22309,3.8477 0.096,0.96642 0.11987,1.94605 0.3909,2.88616 0.2974,0.98395 0.7543,1.80007 1.33279,2.57928 0.0481,0.0618 0.12469,0.22969 0.16789,0.28867 0.11987,0.80036 1.09846,1.92779 1.11525,3.67415 0.0118,1.35288 0.55885,2.95099 0.39452,4.51768 -0.1607,1.56657 -0.42335,3.10343 -0.67155,4.57336 -0.18226,1.06102 -0.32377,2.07259 -0.36096,2.9861 -0.0363,0.6508 0.06,1.42206 0.16789,2.16446 0.23983,1.72668 0.8826,3.31894 2.10386,4.91768 0.71592,0.95093 0.31296,1.00872 1.49684,1.50612 1.01212,0.41572 1.92591,0.71273 2.91693,0.821 1.28829,0.14348 2.59074,0.29265 3.63967,0.57758 1.43472,0.38906 2.49194,0.66112 3.61666,1.42082 1.55513,1.0503 2.87328,1.77631 5.11314,3.18896 0.1787,0.48491 0.54804,0.86223 0.73151,1.38713 0.6248,1.78555 1.59325,3.98552 2.68452,6.06065 1.66041,3.15358 4.00807,6.72281 6.21195,10.0075 l 0.084,1.53521 c 8.36487,31.9898 2.38687,58.2007 -13.73824,78.14786 27.80493,48.92387 71.57775,44.50114 110.22317,46.12664 37.89928,1.59402 95.31368,-26.95319 91.45023,-46.41521 -12.99714,-18.95044 -15.5543,-45.57639 -11.97781,-69.04559 1.00731,-6.39198 1.79495,-8.90745 3.58883,-12.17037 1.64649,-3.13967 2.74855,-4.89323 4.29708,-7.65292 2.13745,-3.81889 3.28735,-7.70294 4.02678,-10.96693 0.10795,-0.4611 0.23983,-1.04049 0.45928,-1.6246 0.65356,-0.39814 1.4725,-0.75601 1.86427,-0.97261 1.15483,-0.63945 2.86117,-1.50866 4.86575,-2.16445 0.5936,-0.1917 1.20686,-0.37035 1.84568,-0.72198 0.68474,-0.38907 1.23241,-1.02206 1.67767,-1.58728 1.22222,-1.52597 2.01525,-3.26319 2.34899,-5.05073 0.31177,-1.70871 0.65593,-3.18908 0.59361,-4.49539 -0.005,-0.15256 0.005,-0.27336 0,-0.4333 -0.084,-1.69141 -0.638,-3.86301 -0.42691,-5.91649 0.20745,-2.02998 0.70393,-4.04098 1.17521,-5.48358 0.47011,-1.44242 0.78667,-1.83091 1.09966,-2.56867 l -1.2e-4,1.7e-4 v 1.1e-4 h -2.3e-4 4.7e-4 -2.4e-4 z"
     id="path6671"
     style="color:#000000;display:inline;overflow:visible;visibility:visible;fill:#87aade;fill-opacity:1;fill-rule:nonzero;stroke:none;stroke-width:6.11547232;marker:none;enable-background:accumulate"
     inkscape:connector-curvature="0" />
  <path
     d="m 259.63048,85.069061 c -7.35766,0.0397 -13.68546,0.626074 -18.95929,1.587333 -17.61979,-1.852872 -45.39269,-1.064933 -67.61596,9.812734 3.29731,-0.158801 6.0912,-0.267127 8.72464,-0.288678 -10.43481,4.18271 -22.37341,11.39945 -35.40196,23.52149 2.94858,-1.39139 5.70075,-2.59374 8.22133,-3.60763 -9.94985,8.08237 -17.99286,17.87741 -23.32173,29.58226 -5.84283,12.83427 -3.95363,69.40516 -1.6778,79.22255 2.09932,9.0553 0.72911,14.3654 0.50367,15.15198 -0.0839,-0.0397 -0.0839,-0.1106 -0.16789,-0.14463 -1.50247,-0.62092 -3.56113,-1.12845 -5.36904,-0.4333 -1.79376,0.81686 -2.50068,2.50356 -2.85217,4.04047 -0.63917,2.53935 0.084,5.07955 0.67155,7.35948 0.93777,3.80449 2.166,7.36306 3.18783,10.24558 0.37297,1.05048 0.72671,2.24971 1.174,3.46335 0.44492,1.19543 0.78788,2.52046 1.00614,3.89613 0.21945,1.37568 0.36696,2.74001 0.50366,4.18476 0.12352,1.33092 0.20026,2.72277 0.33578,4.04047 0.096,0.96642 0.22664,1.94617 0.50367,2.88616 0.29739,0.98395 0.76388,1.81822 1.34225,2.59743 0.0482,0.0618 0.12233,0.0822 0.16789,0.14462 0.11989,0.80036 0.86463,2.00555 0.88381,3.7519 0.0118,1.35299 0.50604,2.90676 0.34296,4.47344 -0.16069,1.56658 -0.42335,3.14779 -0.67155,4.61773 -0.18226,1.06101 -0.29977,2.11692 -0.33577,3.03032 -0.0363,0.65086 0.0719,1.27784 0.16789,2.02029 0.23983,1.72668 0.52167,3.34481 1.74291,4.9436 0.71592,0.95094 1.43544,1.37119 2.61845,1.86898 1.01212,0.41572 2.59913,0.86428 3.59015,0.97254 1.28818,0.14349 2.64219,0.29266 3.69101,0.57759 1.43483,0.38907 2.43449,0.87771 3.18794,1.29877 -0.71352,-0.46507 -1.79867,-1.11207 -3.18794,-1.58734 -1.0589,-0.359 -2.24382,-0.6508 -3.52325,-0.86637 -0.96894,-0.16901 -2.59529,-0.56601 -3.42237,-0.9726 -0.97256,-0.45485 -1.49864,-0.83853 -2.11515,-1.72458 -1.0445,-1.53057 -1.23109,-2.93272 -1.40726,-4.51076 -0.12714,-1.08217 -0.0839,-2.24874 0,-3.17461 0.0481,-0.5541 0.096,-1.08002 0.16789,-1.73161 0.16907,-1.40012 0.2974,-3.03975 0.33578,-4.61778 0.0363,-1.57808 -0.53242,-3.08659 -0.67875,-4.47344 -0.1667,-1.58574 -1.00973,-2.75236 -1.21911,-3.60756 0.49411,0.61882 1.01212,1.21074 1.51004,1.73162 1.46194,1.53707 2.59398,2.78299 3.35558,3.75184 0.76149,0.96846 1.17402,1.58734 1.17402,1.58734 0,0 -0.29977,-0.58688 -1.00733,-1.58734 -0.70632,-1.00044 -1.79759,-2.4393 -3.18782,-4.04047 -0.56124,-0.6487 -1.32019,-1.24767 -1.84556,-2.02017 -0.52523,-0.77252 -0.95217,-1.67445 -1.17402,-2.59755 -0.21945,-0.88492 -0.2782,-1.90816 -0.33578,-2.88604 -0.084,-1.30416 -0.096,-2.54524 -0.16789,-3.8962 -0.0719,-1.4165 -0.15706,-2.91315 -0.33578,-4.32915 -0.17744,-1.41588 -0.38971,-2.72225 -0.83943,-4.04035 -0.68354,-1.99704 -1.28422,-3.96794 -1.84544,-5.62787 -0.79866,-2.36166 -1.73799,-5.03151 -2.51688,-7.93678 -0.17626,-0.67553 -0.32615,-1.33336 -0.50367,-2.02017 0.48686,1.0693 1.08888,1.59941 2.01333,2.45319 2.46855,2.27999 4.19456,0.14462 4.19456,0.14462 2.01284,1.33824 5.45118,5.57189 11.40915,16.88353 -0.45091,-0.76837 -1.22714,-1.06368 -2.01345,-1.44304 -1.43843,-0.69408 -4.28293,0.48264 -4.52997,2.3088 -0.42928,3.17308 2.49757,11.82911 2.85229,10.10118 0.26622,-1.29621 -1.60728,-5.6417 -0.50367,-7.64804 0.57443,-1.04418 2.90315,-1.32072 4.69799,-0.72198 0.47366,0.1588 0.29977,-0.98911 0,-1.73167 -0.008,-0.034 0.008,-0.12251 0,-0.14462 -4.59545,-10.55054 -8.84983,-17.92074 -12.41588,-21.50131 -2.11191,-2.12051 -4.3363,-3.23371 -5.36893,-3.17462 -0.41854,0.0284 -0.68114,0.64157 -0.83944,1.15444 -0.005,-0.55581 0.0363,-1.04129 0.16789,-1.58728 0.37053,-1.44776 0.93538,-3.00549 2.34886,-3.60762 1.33435,-0.63946 3.07942,-0.29379 4.5301,0.28867 6.25751,2.51144 8.20609,6.22247 11.07361,10.75068 1.41026,2.2268 4.40729,9.43837 6.12406,15.36823 -0.86702,-6.36152 -2.95686,-11.78391 -3.69125,-13.70881 l 9.64753,0.14462 c 0.084,1.64858 0.23865,3.27393 0.67155,4.90635 0.67994,2.60763 2.14345,5.21078 4.53021,7.07085 3.20701,2.4347 7.32025,3.43527 11.24126,4.3291 6.36197,1.48372 12.90192,2.1538 19.46272,2.16457 8.63469,0.0227 17.30596,-0.52405 25.83836,-1.73161 3.02785,-0.4282 6.0852,-0.95094 9.06017,-1.73173 0.99773,-0.26089 2.03731,-0.46336 3.02006,-0.86632 0.5996,-0.22686 1.27282,-0.59306 1.84568,-1.15449 1.57586,-1.67853 2.30137,-3.71834 2.85228,-5.62774 0.66436,-2.21727 1.02771,-4.43499 1.51003,-6.6379 0.3346,-1.54554 0.27103,-3.25696 -0.16789,-4.76207 5.00545,-3.22876 11.09376,-3.60461 14.09367,-3.60756 3.12224,-0.003 8.35048,0.98083 13.25472,3.17461 0.008,0.62193 0.0363,1.26202 0.16789,1.87595 0.51567,2.1973 1.14643,4.42852 1.84556,6.63807 0.58042,1.90289 1.25064,3.96731 2.85229,5.62775 0.58161,0.55467 1.2426,0.93444 1.84567,1.15443 0.98935,0.3919 2.0191,0.61677 3.02006,0.86535 2.98697,0.74671 6.02596,1.19448 9.06017,1.58739 8.55027,1.11043 17.20476,1.55864 25.83837,1.44306 6.55996,-0.0822 13.12412,-0.75295 19.46259,-2.30886 3.90699,-0.93857 8.07239,-2.14666 11.24138,-4.61777 2.35787,-1.88725 3.72279,-4.45558 4.36233,-7.0708 0.41134,-1.65302 0.62361,-3.38554 0.67155,-5.05069 l 13.24595,-2.45308 c -1.51122,2.53277 -2.81535,6.41988 -4.01802,10.53409 1.71857,-4.00134 4.46449,-8.86321 6.20799,-11.39995 0.43529,-0.63431 1.55297,-2.1453 2.68441,-3.03034 1.13563,-0.88389 2.42358,-1.7628 3.85901,-2.59753 0.98934,-0.57242 2.05698,-1.08966 3.18782,-1.44299 1.48545,-0.43331 3.17967,-0.94169 4.36232,-0.28869 0.78187,0.34767 1.35557,1.05405 1.67792,1.87596 -0.34059,-0.14122 -0.82025,-0.15143 -1.34239,-0.14462 -1.22713,0.0227 -3.00674,0.47867 -5.03338,1.87601 -4.13338,2.84861 -7.7847,9.12875 -13.42248,24.53164 -0.0839,0.23083 -0.0839,0.48548 -0.16789,0.72192 -0.0719,0.41855 0.0118,0.96126 0.33578,0.86638 2.94355,-0.88804 5.16854,-0.0284 5.53681,2.02029 0.38972,2.17127 -2.76247,6.01494 -2.01334,6.49362 0.76869,0.49114 1.82087,-1.57617 2.68442,-3.31901 0.97854,-1.97373 1.77792,-3.73938 1.6779,-5.3393 -0.23864,-3.80562 -3.59962,-5.75196 -6.37564,-3.46318 6.46666,-14.12096 9.34353,-17.24945 11.40903,-18.47086 0,0 0.83703,1.71698 3.85901,0 1.33435,-0.75805 2.71942,-1.6635 3.35559,-2.88605 0.13671,1.92915 -0.2734,3.85791 -0.67155,5.77209 -0.82145,3.88916 -2.03971,7.4657 -3.18793,10.38992 -0.35135,0.89422 -0.7495,1.87 -1.17402,2.88604 -0.52768,1.26656 -0.86222,2.6086 -1.17401,4.04048 -0.31178,1.43194 -0.61518,2.99607 -0.83944,4.47343 -0.20982,1.37029 -0.29383,2.69708 -0.50367,4.04048 -0.15588,0.98598 -0.38253,1.99738 -0.67155,2.8861 -0.27939,0.90659 -0.82384,1.61138 -1.51002,2.3088 -0.68594,0.69719 -1.47082,1.44555 -2.18121,2.02024 -0.86942,0.69521 -1.67121,1.26689 -2.349,1.87601 -0.67754,0.60957 -1.24524,1.10639 -1.67779,1.58734 0.44728,-0.44352 1.17162,-0.89116 1.84556,-1.44306 0.70634,-0.57859 1.44143,-1.21023 2.34899,-1.87595 0.7411,-0.54049 1.60321,-1.1732 2.34899,-1.87602 0.7459,-0.70235 1.46158,-1.45167 1.84556,-2.45302 0.34659,-0.92933 0.47484,-1.90885 0.67155,-2.88616 0.26983,-1.3362 0.57561,-2.67574 0.83944,-4.04047 0.27939,-1.43755 0.49404,-2.94038 0.83943,-4.32904 0.34534,-1.38877 0.79267,-2.66525 1.34226,-3.89619 0.79028,-1.77812 1.44971,-3.51933 2.01334,-5.05063 0.90419,-2.45654 1.75766,-5.40383 2.34898,-8.51402 0.44491,-2.3017 0.84663,-4.75809 0.33578,-7.21508 -0.28659,-1.5304 -0.86104,-3.23422 -2.51675,-4.04048 -0.61637,-0.27336 -1.36289,-0.43102 -2.01335,-0.4333 -1.08406,-0.004 -2.0746,0.38339 -3.02005,0.72199 -1.20687,0.42082 -2.37956,0.97572 -3.35559,1.58733 -0.82504,0.51667 -1.46037,1.04826 -2.18122,1.58739 l -2.51687,0.28754 c 0.19665,-0.4713 0.36816,-1.02416 0.50367,-1.58739 1.87363,-7.76527 6.8612,-33.57878 6.71118,-46.46568 -0.34178,-29.37797 7.91206,-41.57867 -16.7782,-67.24546 -6.20727,-6.45278 -13.53688,-12.21631 -21.64368,-17.02776 4.26865,0.95819 8.79443,2.43851 13.59024,4.47337 -10.54596,-7.32845 -19.60494,-12.3675 -27.51615,-15.873383 3.8078,0.505328 7.61142,1.04582 11.57692,1.587389 -25.56915,-10.870748 -47.3691,-14.09538 -64.09261,-13.99749 h 2.4e-4 z m 39.59651,53.825269 c 8.92682,0.006 16.22836,1.64201 20.63709,6.63796 12.82541,14.53361 16.40619,25.20847 17.95268,37.51892 1.54637,12.31029 1.23997,21.32544 6.20789,28.1391 4.6205,6.33747 5.62003,25.41894 4.86561,30.73669 l -9.89913,0.86631 c -0.4881,-0.73333 -0.96295,-1.29809 -1.67779,-1.87596 -2.17283,-1.7442 -4.92127,-2.85059 -7.55013,-3.7519 -4.5079,-1.55904 -9.35517,-2.25924 -14.09368,-2.74177 -4.04993,-0.41572 -8.0098,-0.6673 -12.08023,-0.72197 -3.22656,-0.0397 -6.5614,0.16106 -9.73135,0.43329 -3.84942,0.32895 -7.59668,0.74773 -11.40915,1.29861 -3.51881,0.50873 -7.09961,1.08143 -10.5702,1.87601 -1.33591,0.30512 -2.70767,0.7302 -4.02678,1.15442 -0.9066,0.28584 -1.79868,0.6271 -2.68453,1.15444 -2.17581,1.31838 -3.74124,3.1674 -4.53008,5.33918 -0.20864,0.57242 -0.39816,1.13503 -0.50367,1.73162 -4.01407,-1.74206 -9.57857,-2.76633 -13.9259,-2.74176 -4.49819,0.0284 -11.15229,1.44701 -14.26144,3.319 -0.90421,-1.74501 -2.34959,-3.38667 -4.19455,-4.47344 -0.8934,-0.51667 -1.94174,-0.73434 -2.85229,-1.00974 -1.32548,-0.40948 -2.68644,-0.71989 -4.02679,-1.0097 -3.4827,-0.75499 -6.87606,-1.40789 -10.40242,-1.87589 -3.82076,-0.50761 -7.72282,-0.87052 -11.57704,-1.15455 -3.1738,-0.23536 -6.33787,-0.36694 -9.56347,-0.28868 -4.06923,0.10323 -8.20478,0.25975 -12.24811,0.72198 -4.7306,0.53652 -9.44236,1.41991 -13.92579,3.03039 -2.61472,0.93137 -5.40454,1.98309 -7.55026,3.7519 -1.36924,1.1364 -2.28771,2.57343 -2.68441,4.18476 l -5.87234,-0.28868 c -1.37499,-3.31219 -5.3357,-13.4984 -4.36231,-19.19228 0.95456,-5.58584 5.4537,-5.63388 6.04011,-13.70893 0.58642,-8.07505 -1.68943,-37.73347 1.17401,-46.03278 2.86393,-8.29929 15.55825,-25.19179 26.84509,-28.13908 19.51392,-5.09588 35.44632,4.7341 63.92471,3.75185 18.68889,-0.64457 41.51343,-6.65707 58.55581,-6.63802 l -2.5e-4,2.4e-4 z m -0.50367,96.25043 c 1.57083,-0.0822 3.13662,-0.0284 4.69785,0 4.0215,0.0511 8.09434,0.1673 12.08034,0.57758 4.6789,0.48491 9.30265,1.24778 13.59026,2.7417 2.56076,0.90047 5.1473,1.90585 7.04682,3.46335 1.4893,1.21216 2.48571,2.89818 2.51664,4.6176 0.06,2.35832 -0.10795,4.67664 -0.67155,6.92664 -0.61999,2.41394 -1.81174,4.75615 -3.85888,6.34933 -2.77818,2.22759 -6.54474,3.3591 -10.40256,4.32915 -6.16831,1.51809 -12.68102,2.07679 -19.12706,2.16458 -8.55543,0.11343 -17.05473,-0.20134 -25.50271,-1.29872 -3.00314,-0.39076 -6.01733,-0.86535 -8.89252,-1.58745 -0.96535,-0.2433 -1.98178,-0.5178 -2.85229,-0.86529 -0.56123,-0.24217 -1.09366,-0.43501 -1.34225,-0.72198 -1.34382,-1.32605 -1.90002,-3.17506 -2.51675,-5.05062 -0.0839,-0.25465 -0.096,-0.60957 -0.16671,-0.86637 0.20864,-0.51043 0.13551,-1.36082 0,-2.45314 0.8934,-0.3919 1.39814,-1.28165 1.17402,-2.16458 -0.22665,-0.89422 -1.16202,-1.56579 -2.18111,-1.58734 -0.23864,-0.56828 -0.41252,-1.07429 -0.67155,-1.44299 9.7e-4,-0.10322 -0.005,-0.18546 0,-0.28868 v -0.4333 c 0.0719,-0.73746 0.24821,-1.45644 0.50367,-2.16457 0.68355,-1.88004 2.16216,-3.49755 4.02679,-4.61766 0.67155,-0.41345 1.47333,-0.72199 2.34898,-1.00969 1.24369,-0.40098 2.55021,-0.70962 3.85901,-1.00976 3.39804,-0.77869 6.74344,-1.37063 10.23466,-1.8759 3.77807,-0.54673 7.59883,-0.97362 11.40905,-1.29882 1.57453,-0.13385 3.12713,-0.34653 4.69784,-0.43331 v -3.9e-4 z m -109.39356,3.60756 c 0.78067,-0.0227 1.56591,-0.006 2.34886,0 2.3491,0.0284 4.68238,0.25976 7.04684,0.4333 3.81488,0.28131 7.62293,0.65081 11.40915,1.15444 3.49866,0.46506 6.99263,0.9912 10.40243,1.73161 1.31336,0.28584 2.60921,0.62296 3.85901,1.00975 0.88021,0.27734 1.67097,0.60442 2.34898,1.00969 1.88178,1.09879 3.31399,2.74557 4.02667,4.61767 0.35497,0.94061 0.6428,1.90386 0.67155,2.88615 -0.25183,0.37149 -0.60917,0.87359 -0.83944,1.44299 -1.03011,0.0284 -1.96631,0.68178 -2.18121,1.58739 -0.20746,0.87364 0.4629,1.63107 1.34225,2.02024 -0.12232,1.10407 -0.0481,2.08552 0.16789,2.59742 -0.0719,0.266 -0.25664,0.4577 -0.33578,0.72199 -0.58761,1.88236 -1.19319,3.8536 -2.51675,5.1949 -0.24345,0.28982 -0.61755,0.4713 -1.174,0.72198 -0.86463,0.35787 -1.89006,0.61161 -2.85229,0.86637 -2.86381,0.75493 -5.72785,1.16164 -8.72463,1.5874 -8.43024,1.19435 -17.11422,1.74737 -25.67048,1.73161 -6.44701,-0.0113 -12.76809,-0.57242 -18.95941,-2.02018 -3.87245,-0.92621 -7.92561,-1.98927 -10.73797,-4.18487 -2.07173,-1.56959 -3.2015,-3.79842 -3.85901,-6.20505 -0.60318,-2.24329 -0.69793,-4.71209 -0.67155,-7.07091 0.005,-1.71971 0.87901,-3.38854 2.34898,-4.61772 1.87519,-1.57906 4.33235,-2.53402 6.87908,-3.46324 4.26398,-1.54275 8.91914,-2.34691 13.59024,-2.88609 3.9793,-0.45599 8.05992,-0.76634 12.08023,-0.86638 l 2.4e-4,2.8e-4 z"
     id="path6685"
     style="fill:#87aade;stroke:none;stroke-width:6.11547232"
     inkscape:connector-curvature="0" />
  <path
     d="m 203.18025,358.19296 c 0,0 18.95238,25.84765 46.56871,26.54627 27.61632,0.69855 54.69116,-27.24482 54.69116,-27.24482 0,0 -20.84763,28.87485 -51.44218,28.87485 -30.59456,0 -49.81769,-28.1763 -49.81769,-28.1763 z"
     id="path3158"
     style="fill:#3062ad;fill-opacity:1;stroke:none;stroke-width:6.11547232"
     inkscape:connector-curvature="0" />
</svg>
