<?xml version="1.0" encoding="UTF-8" standalone="no"?>
<!-- Created with Inkscape (http://www.inkscape.org/) -->

<svg
   xmlns:dc="http://purl.org/dc/elements/1.1/"
   xmlns:cc="http://creativecommons.org/ns#"
   xmlns:rdf="http://www.w3.org/1999/02/22-rdf-syntax-ns#"
   xmlns:svg="http://www.w3.org/2000/svg"
   xmlns="http://www.w3.org/2000/svg"
   xmlns:sodipodi="http://sodipodi.sourceforge.net/DTD/sodipodi-0.dtd"
   xmlns:inkscape="http://www.inkscape.org/namespaces/inkscape"
   id="svg2"
   version="1.1"
   inkscape:version="0.92.2 (5c3e80d, 2017-08-06)"
   xml:space="preserve"
   width="1417.325"
   height="617.97748"
   viewBox="0 0 1417.325 617.97748"
   sodipodi:docname="logo slushpool.svg"><metadata
     id="metadata8"><rdf:RDF><cc:Work
         rdf:about=""><dc:format>image/svg+xml</dc:format><dc:type
           rdf:resource="http://purl.org/dc/dcmitype/StillImage" /><dc:title /></cc:Work></rdf:RDF></metadata><defs
     id="defs6"><clipPath
       clipPathUnits="userSpaceOnUse"
       id="clipPath16"><path
         d="m 0,494.382 1133.86,0 L 1133.86,0 0,0 0,494.382 Z"
         id="path18"
         inkscape:connector-curvature="0" /></clipPath></defs><sodipodi:namedview
     pagecolor="#ffffff"
     bordercolor="#666666"
     borderopacity="1"
     objecttolerance="10"
     gridtolerance="10"
     guidetolerance="10"
     inkscape:pageopacity="0"
     inkscape:pageshadow="2"
     inkscape:window-width="1920"
     inkscape:window-height="1016"
     id="namedview4"
     showgrid="false"
     inkscape:zoom="0.87008574"
     inkscape:cx="752.78944"
     inkscape:cy="296.6165"
     inkscape:window-x="0"
     inkscape:window-y="27"
     inkscape:window-maximized="1"
     inkscape:current-layer="g10" /><g
     id="g10"
     inkscape:groupmode="layer"
     inkscape:label="logo slushpool"
     transform="matrix(1.25,0,0,-1.25,0,617.9775)"><g
       id="g894"
       style="fill:#000000"><g
         style="fill:#000000;fill-opacity:1"
         transform="translate(199.3573,296.4346)"
         id="g20"><path
           inkscape:connector-curvature="0"
           id="path22"
           style="fill:#000000;fill-opacity:1;fill-rule:nonzero;stroke:none"
           d="m 0,0 -14.102,4.448 c -3.169,0.919 -5.468,1.991 -6.898,3.216 -1.433,1.229 -2.146,3.013 -2.146,5.367 0,1.124 0.153,2.3 0.459,3.525 0.615,3.066 2.247,5.289 4.906,6.666 2.657,1.383 6.439,2.069 11.342,2.069 l 7.36,0 7.281,0 c 2.502,0 5.211,-0.026 8.122,-0.074 2.914,-0.052 6.21,-0.079 9.888,-0.079 l 7.97,20.388 c -5.111,0.101 -9.273,0.18 -12.493,0.232 -3.217,0.048 -6.054,0.074 -8.505,0.074 l -6.822,0 -7.128,0 c -6.235,0 -11.982,-0.433 -17.245,-1.303 -5.264,-0.866 -9.914,-2.401 -13.949,-4.597 -4.037,-2.2 -7.383,-5.109 -10.041,-8.735 -2.657,-3.631 -4.496,-8.202 -5.518,-13.722 -0.612,-3.272 -0.918,-6.286 -0.918,-9.042 0,-2.965 0.407,-5.699 1.224,-8.201 0.818,-2.507 2.148,-4.807 3.988,-6.898 1.839,-2.095 4.291,-4.011 7.357,-5.748 3.066,-1.741 6.845,-3.324 11.342,-4.755 l 13.031,-3.984 c 3.164,-1.024 5.542,-2.222 7.127,-3.6 1.582,-1.383 2.376,-3.299 2.376,-5.748 0,-0.516 -0.027,-1.024 -0.077,-1.535 -0.052,-0.512 -0.129,-1.024 -0.23,-1.531 -0.82,-3.985 -2.786,-6.618 -5.903,-7.896 -3.116,-1.277 -7.74,-1.916 -13.87,-1.916 l -5.75,0 -8.352,0 c -3.067,0 -6.236,0.022 -9.505,0.075 -3.272,0.052 -6.387,0.131 -9.35,0.232 l -7.817,-20.541 c 7.152,0 13.971,-0.049 20.463,-0.154 6.489,-0.1 12.083,-0.153 16.785,-0.153 7.255,0 13.615,0.46 19.083,1.383 5.465,0.918 10.167,2.502 14.102,4.75 3.935,2.248 7.101,5.236 9.505,8.967 2.399,3.727 4.162,8.455 5.288,14.177 0.613,3.066 0.919,5.927 0.919,8.586 0,5.827 -1.713,10.931 -5.135,15.327 C 14.739,-6.338 8.685,-2.76 0,0" /></g><g
         style="fill:#000000;fill-opacity:1"
         transform="translate(302.8237,254.1277)"
         id="g24"><path
           inkscape:connector-curvature="0"
           id="path26"
           style="fill:#000000;fill-opacity:1;fill-rule:nonzero;stroke:none"
           d="m 0,0 -49.358,0 17.169,87.833 -25.292,0 -21.306,-109.14 70.664,0 L 0,0 Z" /></g><g
         style="fill:#000000;fill-opacity:1"
         transform="translate(409.8156,341.9608)"
         id="g28"><path
           inkscape:connector-curvature="0"
           id="path30"
           style="fill:#000000;fill-opacity:1;fill-rule:nonzero;stroke:none"
           d="m 0,0 -25.291,0 -13.49,-68.823 c -0.818,-4.195 -1.789,-7.694 -2.911,-10.502 -1.127,-2.813 -2.557,-5.057 -4.294,-6.745 -1.738,-1.684 -3.831,-2.887 -6.283,-3.6 -2.454,-0.718 -5.42,-1.076 -8.89,-1.076 -6.236,0 -10.732,1.098 -13.49,3.298 -2.76,2.196 -4.138,5.747 -4.138,10.651 0,1.124 0.076,2.353 0.229,3.679 0.153,1.329 0.331,2.707 0.536,4.142 L -64.532,0 -89.826,0 -102.701,-66.067 c -0.512,-2.349 -0.842,-4.545 -0.997,-6.588 -0.153,-2.047 -0.23,-4.042 -0.23,-5.979 0,-5.827 0.945,-10.861 2.837,-15.1 1.889,-4.243 4.599,-7.69 8.125,-10.345 3.525,-2.659 7.841,-4.628 12.952,-5.9 5.109,-1.278 10.883,-1.921 17.321,-1.921 7.052,0 13.283,0.744 18.7,2.227 5.415,1.478 10.141,3.88 14.179,7.204 4.037,3.32 7.381,7.585 10.041,12.799 2.655,5.209 4.7,11.596 6.13,19.159 L 0,0 Z" /></g><g
         style="fill:#000000;fill-opacity:1"
         transform="translate(475.802,247.6146)"
         id="g32"><path
           inkscape:connector-curvature="0"
           id="path34"
           style="fill:#000000;fill-opacity:1;fill-rule:nonzero;stroke:none"
           d="m 0,0 c 2.399,3.727 4.162,8.455 5.288,14.177 0.613,3.066 0.919,5.927 0.919,8.586 0,5.827 -1.712,10.931 -5.135,15.327 -3.425,4.392 -9.479,7.97 -18.164,10.73 l -14.102,4.448 c -3.169,0.919 -5.468,1.991 -6.898,3.216 -1.433,1.229 -2.146,3.013 -2.146,5.367 0,1.124 0.153,2.3 0.459,3.525 0.615,3.067 2.247,5.289 4.906,6.666 2.657,1.383 6.439,2.069 11.342,2.069 l 7.36,0 7.281,0 c 2.502,0 5.211,-0.026 8.122,-0.074 2.914,-0.052 6.209,-0.079 9.888,-0.079 l 7.97,20.388 c -5.111,0.101 -9.273,0.18 -12.493,0.232 -3.217,0.048 -6.054,0.074 -8.505,0.074 l -6.822,0 -7.127,0 c -6.236,0 -11.984,-0.433 -17.246,-1.303 -5.264,-0.866 -9.914,-2.401 -13.949,-4.597 -4.037,-2.2 -7.383,-5.109 -10.041,-8.735 -2.657,-3.631 -4.496,-8.202 -5.518,-13.722 -0.612,-3.272 -0.918,-6.286 -0.918,-9.042 0,-2.965 0.407,-5.699 1.224,-8.201 0.818,-2.507 2.148,-4.807 3.988,-6.898 1.839,-2.095 4.291,-4.011 7.357,-5.748 3.066,-1.741 6.845,-3.324 11.342,-4.755 l 13.031,-3.984 c 3.164,-1.024 5.542,-2.222 7.127,-3.6 1.582,-1.383 2.376,-3.299 2.376,-5.748 0,-0.516 -0.027,-1.024 -0.077,-1.535 -0.053,-0.512 -0.129,-1.024 -0.23,-1.531 -0.82,-3.985 -2.786,-6.618 -5.903,-7.896 -3.116,-1.277 -7.74,-1.916 -13.87,-1.916 l -5.75,0 -8.352,0 c -3.067,0 -6.236,0.022 -9.505,0.075 -3.272,0.052 -6.387,0.131 -9.35,0.232 l -7.817,-20.541 c 7.152,0 13.971,-0.049 20.463,-0.154 6.489,-0.1 12.083,-0.153 16.785,-0.153 7.255,0 13.615,0.46 19.083,1.383 5.465,0.918 10.167,2.502 14.102,4.75 C -5.57,-6.719 -2.404,-3.731 0,0" /></g><g
         style="fill:#000000;fill-opacity:1"
         transform="translate(562.944,299.5009)"
         id="g36"><path
           inkscape:connector-curvature="0"
           id="path38"
           style="fill:#000000;fill-opacity:1;fill-rule:nonzero;stroke:none"
           d="m 0,0 -41.235,0 8.278,42.46 -25.291,0 -21.307,-109.14 25.291,0 8.585,44.455 41.386,0 -8.738,-44.455 25.294,0 L 33.57,42.46 8.276,42.46 0,0 Z" /></g><g
         style="fill:#000000;fill-opacity:1"
         transform="translate(689.0927,303.945)"
         id="g40"><path
           inkscape:connector-curvature="0"
           id="path42"
           style="fill:#000000;fill-opacity:1;fill-rule:nonzero;stroke:none"
           d="m 0,0 c -0.512,-2.655 -1.225,-4.855 -2.143,-6.588 -0.923,-1.74 -2.227,-3.145 -3.911,-4.216 -1.684,-1.072 -3.81,-1.842 -6.36,-2.301 -2.559,-0.459 -5.673,-0.691 -9.352,-0.691 l -15.48,0 6.128,31.271 15.332,0 c 5.515,0 9.627,-0.84 12.339,-2.529 2.703,-1.684 4.059,-4.728 4.059,-9.12 C 0.612,3.884 0.407,1.942 0,0 m 18.625,-16.937 c 2.808,4.344 4.777,9.886 5.901,16.631 0.612,3.167 0.918,6.185 0.918,9.046 0,10.218 -3.446,17.649 -10.344,22.303 -3.461,2.331 -7.702,4.076 -12.718,5.239 l 2.385,12.339 -10.638,0 -2.191,-10.864 c -2.178,0.155 -4.423,0.259 -6.806,0.259 l -1.825,0 2.05,10.605 -10.638,0 -2.139,-10.605 -15.626,0 10e-4,0.014 -17.623,0 -4.005,-20.458 9.027,0 -6.156,-31.534 -8.773,0 -3.82,-19.825 8.723,0 -7.289,-37.337 24.679,0 7.204,36.791 17.475,0 c 6.229,0 12.055,0.508 17.47,1.531 5.416,1.019 10.197,2.835 14.335,5.442 4.137,2.607 7.611,6.08 10.423,10.423" /></g><g
         style="fill:#000000;fill-opacity:1"
         transform="translate(790.4901,297.047)"
         id="g44"><path
           inkscape:connector-curvature="0"
           id="path46"
           style="fill:#000000;fill-opacity:1;fill-rule:nonzero;stroke:none"
           d="m 0,0 c -0.359,-3.167 -0.892,-6.692 -1.61,-10.577 -1.329,-7.357 -2.782,-13.332 -4.365,-17.934 -1.584,-4.597 -3.499,-8.175 -5.748,-10.73 -2.248,-2.554 -4.908,-4.291 -7.97,-5.209 -3.07,-0.919 -6.744,-1.382 -11.04,-1.382 -3.066,0 -5.774,0.253 -8.127,0.769 -2.349,0.508 -4.291,1.457 -5.822,2.835 -1.535,1.378 -2.681,3.241 -3.451,5.594 -0.766,2.349 -1.146,5.368 -1.146,9.046 0,2.45 0.175,5.262 0.533,8.429 0.359,3.167 0.893,6.693 1.61,10.577 1.325,7.357 2.808,13.337 4.444,17.934 1.636,4.597 3.578,8.175 5.827,10.73 2.248,2.554 4.907,4.291 7.969,5.214 3.071,0.918 6.745,1.378 11.041,1.378 3.062,0 5.747,-0.258 8.048,-0.766 2.301,-0.512 4.217,-1.456 5.748,-2.839 1.531,-1.378 2.677,-3.215 3.447,-5.515 C 0.157,15.253 0.534,12.265 0.534,8.586 0.534,6.032 0.359,3.167 0,0 m 25.904,-0.84 c 0.358,3.32 0.542,6.461 0.542,9.426 0,13.897 -3.604,23.914 -10.813,30.042 -7.2,6.133 -17.803,9.199 -31.8,9.199 -7.978,0 -15.082,-0.918 -21.311,-2.76 -6.233,-1.837 -11.674,-4.93 -16.324,-9.273 -4.654,-4.344 -8.587,-10.065 -11.806,-17.169 -3.215,-7.103 -5.748,-15.917 -7.585,-26.442 -0.717,-3.678 -1.229,-7.204 -1.535,-10.576 -0.306,-3.373 -0.459,-6.54 -0.459,-9.501 0,-13.796 3.578,-23.76 10.729,-29.893 7.152,-6.133 17.729,-9.199 31.731,-9.199 7.969,0 15.073,0.923 21.31,2.76 6.229,1.842 11.697,4.93 16.404,9.273 4.697,4.344 8.66,10.065 11.88,17.169 3.21,7.104 5.747,15.918 7.585,26.442 0.612,3.678 1.093,7.178 1.452,10.502" /></g><g
         style="fill:#000000;fill-opacity:1"
         transform="translate(895.798,297.047)"
         id="g48"><path
           inkscape:connector-curvature="0"
           id="path50"
           style="fill:#000000;fill-opacity:1;fill-rule:nonzero;stroke:none"
           d="m 0,0 c -0.359,-3.167 -0.897,-6.692 -1.61,-10.577 -1.329,-7.357 -2.786,-13.332 -4.369,-17.934 -1.584,-4.597 -3.5,-8.175 -5.748,-10.73 -2.248,-2.554 -4.904,-4.291 -7.97,-5.209 -3.066,-0.919 -6.745,-1.382 -11.036,-1.382 -3.066,0 -5.778,0.253 -8.127,0.769 -2.349,0.508 -4.291,1.457 -5.822,2.835 -1.535,1.378 -2.686,3.241 -3.451,5.594 -0.766,2.349 -1.151,5.368 -1.151,9.046 0,2.45 0.18,5.262 0.538,8.429 0.359,3.167 0.893,6.693 1.61,10.577 1.325,7.357 2.808,13.337 4.444,17.934 1.636,4.597 3.578,8.175 5.827,10.73 2.243,2.554 4.903,4.291 7.969,5.214 3.067,0.918 6.745,1.378 11.036,1.378 3.067,0 5.748,-0.258 8.049,-0.766 2.301,-0.512 4.216,-1.456 5.747,-2.839 1.536,-1.378 2.682,-3.215 3.452,-5.515 C 0.153,15.253 0.534,12.265 0.534,8.586 0.534,6.032 0.354,3.167 0,0 m 25.904,-0.84 c 0.358,3.32 0.538,6.461 0.538,9.426 0,13.897 -3.605,23.914 -10.809,30.042 -7.204,6.133 -17.807,9.199 -31.804,9.199 -7.974,0 -15.078,-0.918 -21.307,-2.76 -6.237,-1.837 -11.679,-4.93 -16.324,-9.273 -4.654,-4.344 -8.587,-10.065 -11.806,-17.169 -3.219,-7.103 -5.748,-15.917 -7.585,-26.442 -0.717,-3.678 -1.229,-7.204 -1.535,-10.576 -0.306,-3.373 -0.459,-6.54 -0.459,-9.501 0,-13.796 3.573,-23.76 10.729,-29.893 7.152,-6.133 17.729,-9.199 31.731,-9.199 7.969,0 15.073,0.923 21.306,2.76 6.233,1.842 11.701,4.93 16.403,9.273 4.698,4.344 8.661,10.065 11.88,17.169 3.215,7.104 5.748,15.918 7.585,26.442 0.613,3.678 1.098,7.178 1.457,10.502" /></g><g
         style="fill:#000000;fill-opacity:1"
         transform="translate(947.9904,254.1277)"
         id="g52"><path
           inkscape:connector-curvature="0"
           id="path54"
           style="fill:#000000;fill-opacity:1;fill-rule:nonzero;stroke:none"
           d="m 0,0 17.164,87.833 -25.291,0 -21.307,-109.14 70.665,0 L 49.358,0 0,0 Z" /></g><g
         style="fill:#000000;fill-opacity:1"
         transform="translate(313.0375,143.1232)"
         id="g56"><path
           inkscape:connector-curvature="0"
           id="path58"
           style="fill:#000000;fill-opacity:1;fill-rule:nonzero;stroke:none"
           d="m 0,0 -8.704,30.674 -7.352,0 -7.906,-44.83 5.986,0 6.144,34.841 7.838,-28.562 5.139,0 17.914,28.562 -6.145,-34.841 6.111,0 7.905,44.83 -7.347,0 L 0,0 Z" /></g><g
         style="fill:#000000;fill-opacity:1"
         transform="translate(358.9881,128.9676)"
         id="g60"><path
           inkscape:connector-curvature="0"
           id="path62"
           style="fill:#000000;fill-opacity:1;fill-rule:nonzero;stroke:none"
           d="m 0,0 6.245,0 7.906,44.829 -6.246,0 L 0,0 Z" /></g><g
         style="fill:#000000;fill-opacity:1"
         transform="translate(422.2267,138.8938)"
         id="g64"><path
           inkscape:connector-curvature="0"
           id="path66"
           style="fill:#000000;fill-opacity:1;fill-rule:nonzero;stroke:none"
           d="m 0,0 -15.503,34.903 -6.765,0 -7.905,-44.829 5.985,0 6.279,35.605 15.898,-35.605 6.24,0 7.906,44.829 -5.981,0 L 0,0 Z" /></g><g
         style="fill:#000000;fill-opacity:1"
         transform="translate(453.3961,128.9676)"
         id="g68"><path
           inkscape:connector-curvature="0"
           id="path70"
           style="fill:#000000;fill-opacity:1;fill-rule:nonzero;stroke:none"
           d="m 0,0 29.461,0 0.996,5.639 -23.216,0 2.551,14.473 19.313,0 0.996,5.635 -19.313,0 2.369,13.448 23.216,0 0.994,5.634 -29.462,0 L 0,0 Z" /></g><g
         style="fill:#000000;fill-opacity:1"
         transform="translate(508.4789,146.1304)"
         id="g72"><path
           inkscape:connector-curvature="0"
           id="path74"
           style="fill:#000000;fill-opacity:1;fill-rule:nonzero;stroke:none"
           d="m 0,0 7.674,0 1.357,7.684 -7.674,0 L 0,0 Z" /></g><g
         style="fill:#000000;fill-opacity:1"
         transform="translate(549.6324,146.8377)"
         id="g76"><path
           inkscape:connector-curvature="0"
           id="path78"
           style="fill:#000000;fill-opacity:1;fill-rule:nonzero;stroke:none"
           d="M 0,0 10.86,21.007 14.242,0 0,0 Z M 8.006,26.959 -15.7,-17.87 l 6.5,0 6.32,12.231 18.015,0 2.004,-12.231 6.827,0 -7.895,44.829 -8.065,0 z" /></g><g
         style="fill:#000000;fill-opacity:1"
         transform="translate(626.7379,173.797)"
         id="g80"><path
           inkscape:connector-curvature="0"
           id="path82"
           style="fill:#000000;fill-opacity:1;fill-rule:nonzero;stroke:none"
           d="m 0,0 -13.068,0 c -6.178,0 -9.614,-2.882 -10.687,-8.964 l -0.957,-5.442 c -1.131,-6.404 2.617,-8.006 7.746,-9.161 l 12,-2.752 c 2.618,-0.64 3.643,-1.473 3.157,-4.23 l -0.948,-5.379 c -0.438,-2.497 -1.583,-3.455 -4.186,-3.455 l -12.616,0 c -2.598,0 -3.407,0.958 -2.969,3.455 l 0.881,4.999 -6.109,0 -0.868,-4.936 c -1.073,-6.082 1.342,-8.964 7.52,-8.964 l 13.915,0 c 6.179,0 9.614,2.882 10.687,8.964 l 1.083,6.149 c 1.13,6.404 -2.685,8.006 -7.747,9.161 l -12.058,2.815 c -2.564,0.577 -3.589,1.41 -3.103,4.162 l 0.827,4.677 c 0.438,2.497 1.583,3.459 4.119,3.459 l 11.836,0 c 2.536,0 3.344,-0.962 2.907,-3.459 l -0.794,-4.485 6.178,0 0.779,4.422 C 8.598,-2.882 6.178,0 0,0" /></g><g
         style="fill:#000000;fill-opacity:1"
         transform="translate(656.6226,146.1304)"
         id="g84"><path
           inkscape:connector-curvature="0"
           id="path86"
           style="fill:#000000;fill-opacity:1;fill-rule:nonzero;stroke:none"
           d="m 0,0 7.674,0 1.357,7.684 -7.674,0 L 0,0 Z" /></g><g
         style="fill:#000000;fill-opacity:1"
         transform="translate(719.8467,164.6405)"
         id="g88"><path
           inkscape:connector-curvature="0"
           id="path90"
           style="fill:#000000;fill-opacity:1;fill-rule:nonzero;stroke:none"
           d="m 0,0 -4.672,-26.517 c -0.452,-2.559 -1.597,-3.517 -4.2,-3.517 l -13.786,0 c -2.535,0 -3.344,0.958 -2.891,3.517 L -20.877,0 c 0.452,2.565 1.597,3.522 4.133,3.522 l 13.785,0 C -0.356,3.522 0.452,2.565 0,0 m -1.246,9.156 -15.152,0 c -6.178,0 -9.613,-2.882 -10.686,-8.963 l -4.74,-26.902 c -1.073,-6.082 1.343,-8.964 7.521,-8.964 l 15.151,0 c 6.178,0 9.614,2.882 10.687,8.964 L 6.274,0.193 c 1.073,6.081 -1.342,8.963 -7.52,8.963" /></g><g
         style="fill:#000000;fill-opacity:1"
         transform="translate(776.2432,138.8938)"
         id="g92"><path
           inkscape:connector-curvature="0"
           id="path94"
           style="fill:#000000;fill-opacity:1;fill-rule:nonzero;stroke:none"
           d="m 0,0 -15.503,34.903 -6.765,0 -7.905,-44.829 5.985,0 6.279,35.605 15.898,-35.605 6.24,0 7.906,44.829 -5.981,0 L 0,0 Z" /></g><g
         style="fill:#000000;fill-opacity:1"
         transform="translate(807.4174,128.9676)"
         id="g96"><path
           inkscape:connector-curvature="0"
           id="path98"
           style="fill:#000000;fill-opacity:1;fill-rule:nonzero;stroke:none"
           d="m 0,0 29.461,0 0.996,5.639 -23.216,0 2.551,14.473 19.313,0 0.996,5.635 -19.313,0 2.367,13.448 23.216,0 0.996,5.634 -29.462,0 L 0,0 Z" /></g></g></g></svg>